<svg width="30" height="30" viewBox="0 0 30 30" fill="none" xmlns="http://www.w3.org/2000/svg">
    <path d="M27.8863 17.6885C27.8863 16.6252 27.0212 15.7602 25.958 15.7602C24.8948 15.7602 24.0297 16.6252 24.0297 17.6885C24.0297 18.5983 24.664 19.361 25.513 19.5628V26.1804H10.3832V17.3918C14.5119 17.1628 17.7998 13.7687 17.7998 9.62843C17.7998 7.67521 17.0643 5.80742 15.7297 4.3695C15.6454 4.27872 15.527 4.22739 15.4033 4.22739H13.0532V2.59575C13.0532 2.34982 12.8541 2.15076 12.6082 2.15076C12.3622 2.15076 12.1632 2.34982 12.1632 2.59575V6.74903C12.1632 6.99496 12.3622 7.19402 12.6082 7.19402C12.8541 7.19402 13.0532 6.99496 13.0532 6.74903V5.11738H15.2061C16.3061 6.36989 16.9098 7.96416 16.9098 9.62843C16.9098 13.4257 13.7824 16.5152 9.93822 16.5152C6.09406 16.5152 2.96665 13.4257 2.96665 9.62843C2.96665 7.95259 3.58638 6.39689 4.76146 5.11738H6.82326V6.74903C6.82326 6.99496 7.02232 7.19402 7.26825 7.19402C7.51419 7.19402 7.71325 6.99496 7.71325 6.74903V2.59575C7.71325 2.34982 7.51419 2.15076 7.26825 2.15076C7.02232 2.15076 6.82326 2.34982 6.82326 2.59575V4.22739H4.56922C4.44848 4.22739 4.33278 4.27664 4.24882 4.36356C2.82781 5.83709 2.07666 7.6577 2.07666 9.62843C2.07666 13.7687 5.36457 17.1628 9.49322 17.3918V26.6254C9.49322 26.8711 9.69228 27.0704 9.93822 27.0704H25.958C26.2036 27.0704 26.403 26.8711 26.403 26.6254V19.5628C27.252 19.361 27.8863 18.5983 27.8863 17.6885ZM25.958 18.7268C25.3854 18.7268 24.9197 18.261 24.9197 17.6885C24.9197 17.1159 25.3854 16.6501 25.958 16.6501C26.5306 16.6501 26.9963 17.1159 26.9963 17.6885C26.9963 18.261 26.5306 18.7268 25.958 18.7268Z" fill="white"/>
</svg>
