<svg width="30" height="30" viewBox="0 0 30 30" fill="none" xmlns="http://www.w3.org/2000/svg">
    <path d="M29.1311 13.0934L15.0689 1.22122C14.9008 1.07908 14.6539 1.08027 14.4869 1.22362L0.718315 13.0545C0.530385 13.2161 0.508839 13.4995 0.670435 13.6875C0.83233 13.8757 1.11542 13.8969 1.30335 13.7353L4.48889 10.9984V27.4563C4.48889 27.7041 4.68969 27.9052 4.93777 27.9052H24.5816C24.718 27.9052 24.8476 27.843 24.9326 27.7364L25.0394 27.6024C25.1029 27.5228 25.1373 27.424 25.1373 27.3223V10.8966L28.5517 13.7793C28.6358 13.8505 28.7388 13.8853 28.8411 13.8853C28.9689 13.8853 29.0958 13.8311 29.1843 13.7261C29.3444 13.5363 29.3205 13.2532 29.1311 13.0934ZM24.2395 27.0075H5.38664V10.399C5.38664 10.3466 5.37587 10.2969 5.35941 10.2502L14.782 2.15369L24.2395 10.1386V27.0075Z" fill="white"/>
    <path d="M12.5324 15.2516C12.5959 15.2516 12.6596 15.2474 12.724 15.2396C13.1477 15.1864 13.5343 14.9589 13.8135 14.5989C14.1586 14.1533 14.3112 13.5462 14.2319 12.933C14.0835 11.7857 13.1683 10.951 12.1898 11.0746C11.7664 11.1276 11.3794 11.355 11.1005 11.715C10.7555 12.1606 10.6029 12.7678 10.6822 13.3813C10.8204 14.4532 11.6293 15.2516 12.5324 15.2516ZM11.81 12.2645C11.9034 12.1442 12.0641 11.9948 12.3014 11.9652C12.328 11.9619 12.3544 11.9601 12.381 11.9601C12.8332 11.9601 13.2623 12.4365 13.3413 13.0476C13.3904 13.4259 13.3036 13.7909 13.1037 14.0492C13.0106 14.1695 12.8496 14.3191 12.6123 14.3488C12.1311 14.4104 11.6559 13.913 11.5724 13.2661C11.5234 12.8875 11.6101 12.5227 11.81 12.2645Z" fill="white"/>
    <path d="M17.0283 15.2352C17.1031 15.2459 17.1776 15.2516 17.2513 15.2516C18.1409 15.2516 18.948 14.4757 19.1072 13.4184C19.1997 12.8055 19.0599 12.1942 18.7239 11.7411C18.4534 11.3757 18.0721 11.1405 17.6511 11.0789C16.6815 10.9367 15.7448 11.7507 15.5722 12.8959C15.48 13.5088 15.62 14.1202 15.9558 14.5732C16.2266 14.938 16.6076 15.1732 17.0283 15.2352ZM16.46 13.0291C16.551 12.4246 16.9819 11.9599 17.4281 11.9599C17.4592 11.9599 17.4898 11.962 17.5209 11.9664C17.7558 12.0012 17.9126 12.1535 18.0027 12.2753C18.1975 12.538 18.2765 12.9058 18.2196 13.2846C18.1224 13.9304 17.6391 14.4161 17.1591 14.347C16.9242 14.3123 16.7674 14.16 16.6773 14.0385C16.4822 13.7754 16.4029 13.4076 16.46 13.0291Z" fill="white"/>
    <path d="M20.6418 17.6492C20.8049 17.7082 20.9758 17.7378 21.1491 17.7378C21.3882 17.7378 21.6312 17.6816 21.8625 17.5708C22.3748 17.3258 22.7872 16.8389 22.994 16.2353C23.3719 15.1319 22.9407 13.967 22.0331 13.6378C21.6449 13.4968 21.2116 13.525 20.8121 13.7159C20.2998 13.9613 19.8874 14.4479 19.6806 15.0514C19.3024 16.1545 19.7333 17.3201 20.6418 17.6492ZM20.5299 15.3426C20.6574 14.9709 20.9079 14.6657 21.1999 14.5257C21.284 14.4853 21.398 14.4467 21.5249 14.4467C21.5899 14.4467 21.6578 14.4568 21.7272 14.482C22.1701 14.6427 22.3613 15.3124 22.145 15.9444C22.0175 16.3161 21.767 16.6216 21.475 16.7614C21.3475 16.8221 21.1524 16.8793 20.9477 16.8051C20.5045 16.6444 20.313 15.9746 20.5299 15.3426Z" fill="white"/>
    <path d="M9.57617 21.3495V21.4141C9.57617 23.0675 11.006 24.3142 12.9024 24.3142H16.7699C18.6707 24.3142 20.05 23.0944 20.05 21.4141V21.3495C20.05 18.6478 17.7006 16.4498 14.8131 16.4498C11.9256 16.4498 9.57617 18.6475 9.57617 21.3495ZM14.8131 17.3476C17.2056 17.3476 19.1522 19.1428 19.1522 21.3495V21.4141C19.1522 22.5743 18.1503 23.4164 16.7699 23.4164H12.9024C11.4953 23.4164 10.4739 22.5743 10.4739 21.4141V21.3495C10.4739 19.1428 12.4206 17.3476 14.8131 17.3476Z" fill="white"/>
    <path d="M10.3193 15.0514C10.1125 14.4479 9.70016 13.961 9.18784 13.7159C8.78894 13.525 8.35532 13.4968 7.96689 13.6378C7.05926 13.967 6.62804 15.1322 7.00629 16.2353C7.21308 16.8389 7.62544 17.3258 8.13746 17.5708C8.36879 17.6816 8.61178 17.7378 8.85118 17.7378C9.02445 17.7378 9.19562 17.7082 9.35871 17.6492C10.2666 17.3201 10.6976 16.1545 10.3193 15.0514ZM9.05258 16.8051C8.84789 16.879 8.65248 16.8221 8.525 16.7611C8.23293 16.6213 7.98275 16.3161 7.85527 15.9444C7.63861 15.3124 7.82983 14.6424 8.27273 14.482C8.47801 14.4075 8.67283 14.4649 8.80031 14.5257C9.09238 14.6657 9.34285 14.9709 9.47033 15.3426C9.68669 15.9749 9.49547 16.6444 9.05258 16.8051Z" fill="white"/>
</svg>
