<svg width="30" height="30" viewBox="0 0 30 30" fill="none" xmlns="http://www.w3.org/2000/svg">
    <path d="M27.5093 24.7546L21.7427 18.4321C21.7686 18.4068 21.7966 18.3827 21.8192 18.3547C22.0098 18.1177 22.1667 17.6975 21.8344 17.0418C21.816 17.0058 21.793 16.9724 21.7662 16.9427L13.5687 7.95755C13.5678 7.95666 13.5669 7.95547 13.5657 7.95428L10.8602 4.98882C10.8474 4.97334 10.8346 4.95815 10.8197 4.94445L9.82548 3.85463C9.01823 2.96907 7.63957 2.90624 6.75163 3.71527C5.86756 4.52579 5.80503 5.90386 6.61198 6.78674L17.1401 18.3267C17.1985 18.3907 17.2747 18.4366 17.3587 18.4583C17.7112 18.5491 18.4062 18.7108 19.1527 18.8022L19.8912 19.6107L19.4984 20.5272C19.4338 20.6779 19.457 20.8517 19.5586 20.9801C19.6393 21.0819 21.5462 23.4864 22.8483 24.5819C23.8181 25.3972 25.463 25.5309 26.4367 25.5309C26.8795 25.5309 27.1835 25.5032 27.2213 25.4996C27.3895 25.4835 27.5346 25.3736 27.5953 25.2155C27.656 25.0574 27.6233 24.8793 27.5093 24.7546ZM9.62121 8.75914L10.6691 6.10425L12.7361 8.36996L11.6892 11.026L9.62121 8.75914ZM7.35461 4.37482C7.87719 3.8984 8.6898 3.93473 9.16593 4.45671L9.99878 5.36937L8.95094 8.02425L7.27272 6.18465C6.79689 5.66445 6.83411 4.85185 7.35461 4.37482ZM12.3598 11.7609L13.4067 9.10485L21.0626 17.4968C21.1424 17.6698 21.1436 17.769 21.123 17.7946C21.0906 17.8348 21.0337 17.8681 20.9581 17.8949C20.9244 17.9015 20.8926 17.9095 20.8607 17.9238C20.5522 17.998 20.0261 17.9974 19.3993 17.9292C19.3924 17.9286 19.3862 17.9271 19.3796 17.9268C18.8675 17.8699 18.2904 17.7687 17.7103 17.6254L12.3598 11.7609ZM23.4242 23.8988C22.4043 23.0406 20.9194 21.2418 20.4263 20.6329L20.8271 19.6982C20.8959 19.5371 20.8646 19.3504 20.7464 19.2209L20.4197 18.8636C20.5808 18.8552 20.7357 18.8388 20.8822 18.8132L26.1925 24.6358C25.2823 24.6114 24.0778 24.4485 23.4242 23.8988Z" fill="white"/>
    <path d="M19.9582 25.7363H1.95642C1.70986 25.7363 1.50977 25.9361 1.50977 26.183C1.50977 26.4298 1.70986 26.6296 1.95642 26.6296H19.9582C20.2048 26.6296 20.4049 26.4298 20.4049 26.183C20.4049 25.9361 20.2048 25.7363 19.9582 25.7363Z" fill="white"/>
</svg>
