<svg width="30" height="30" viewBox="0 0 30 30" fill="none" xmlns="http://www.w3.org/2000/svg">
    <path d="M29.4061 13.0519L15.3308 1.12191C15.1617 0.978866 14.9148 0.979764 14.7472 1.1243L0.966674 13.0127C0.779043 13.1746 0.758096 13.458 0.919991 13.6459C1.08219 13.8335 1.36498 13.8545 1.55321 13.6926L4.78782 10.9021V27.4564C4.78782 27.7042 4.98862 27.9052 5.2367 27.9052H24.8805C25.0175 27.9052 25.1471 27.8427 25.2321 27.7356L25.3389 27.6009C25.4021 27.5213 25.4362 27.4232 25.4362 27.3217V10.8638L28.8255 13.7366C28.9099 13.8081 29.0129 13.8431 29.1155 13.8431C29.243 13.8431 29.3696 13.7892 29.4584 13.6845C29.6185 13.4954 29.5949 13.212 29.4061 13.0519ZM20.3489 27.0075H9.57585V22.7111C9.57585 19.7411 11.9923 17.3246 14.9624 17.3246C17.9325 17.3246 20.3489 19.7411 20.3489 22.7111V27.0075ZM24.5384 27.0075H21.2467V22.7111C21.2467 19.2461 18.4274 16.4268 14.9624 16.4268C11.497 16.4268 8.67809 19.2461 8.67809 22.7111V27.0075H5.68558V10.1276L15.0432 2.05498L24.5384 10.1028V27.0075Z" fill="white"/>
    <path d="M14.6634 7.10726V9.95016H11.8205C11.5724 9.95016 11.3716 10.151 11.3716 10.399C11.3716 10.6471 11.5724 10.8479 11.8205 10.8479H14.6634V13.6908C14.6634 13.9389 14.8642 14.1397 15.1122 14.1397C15.36 14.1397 15.5611 13.9389 15.5611 13.6908V10.8479H18.404C18.6518 10.8479 18.8529 10.6471 18.8529 10.399C18.8529 10.151 18.6518 9.95016 18.404 9.95016H15.5611V7.10726C15.5611 6.85918 15.36 6.65839 15.1122 6.65839C14.8642 6.65839 14.6634 6.85918 14.6634 7.10726Z" fill="white"/>
</svg>
