<svg width="30" height="30" viewBox="0 0 30 30" fill="none" xmlns="http://www.w3.org/2000/svg">
    <path d="M27.0959 17.9985L24.1827 15.0802C24.18 15.0775 24.1761 15.0766 24.1731 15.0739L26.8496 12.3974C27.5424 11.7043 27.9245 10.7793 27.9245 9.79271C27.9245 8.80607 27.5427 7.88139 26.8496 7.18802L23.1389 3.4776C21.7025 2.04119 19.3656 2.04178 17.9298 3.4776L15.1866 6.22114L12.4299 3.47969C10.9941 2.05196 8.65811 2.05196 7.2223 3.47969L3.51068 7.17006C2.81701 7.85984 2.43457 8.78064 2.43457 9.76278C2.43457 10.7449 2.81672 11.6657 3.51068 12.3555L6.28923 15.1185L3.53522 17.8728C2.84215 18.5659 2.46031 19.4909 2.46031 20.4775C2.46031 21.4638 2.84215 22.3888 3.53522 23.0819L7.24564 26.7923C7.93871 27.4854 8.8637 27.8672 9.85033 27.8672C10.837 27.8672 11.7617 27.4857 12.455 26.7923L15.133 24.1143L18.0606 27.0467C18.7635 27.7505 19.7008 28.138 20.7009 28.138C21.7007 28.1377 22.6383 27.7502 23.3406 27.0467L27.0962 23.2851C28.5512 21.8274 28.5512 19.4561 27.0959 17.9985ZM4.09003 11.7732C3.55228 11.2384 3.25632 10.5247 3.25632 9.76278C3.25632 9.00089 3.55228 8.28717 4.09003 7.75241L7.80105 4.06203C8.91756 2.95211 10.7337 2.95211 11.8502 4.06203L14.6051 6.80198L6.87008 14.5376L4.09003 11.7732ZM11.8736 26.2115C11.3358 26.7498 10.617 27.0461 9.85003 27.0461C9.08305 27.0461 8.36425 26.7498 7.82649 26.2115L4.11577 22.5007C3.57771 21.9627 3.28145 21.2442 3.28145 20.4772C3.28145 19.7102 3.57771 18.9914 4.11577 18.4534L18.5104 4.05814C19.0682 3.50004 19.8011 3.22114 20.5339 3.22114C21.2668 3.22114 21.9997 3.50004 22.5578 4.05814L26.2685 7.76857C26.8065 8.30632 27.1028 9.02513 27.1028 9.79211C27.1028 10.5591 26.8065 11.2779 26.2685 11.8157L11.8736 26.2115ZM26.5004 22.6905L22.7448 26.4521C22.2014 26.9964 21.4754 27.2962 20.7006 27.2962C19.9255 27.2965 19.1993 26.9964 18.6558 26.4521L15.7279 23.5191L23.5812 15.6658C23.5836 15.6685 23.5845 15.6721 23.5869 15.6745L26.5001 18.5928C27.6283 19.7225 27.6283 21.5608 26.5004 22.6905Z" fill="white"/>
    <path d="M15.315 10.3009C15.1546 10.1408 14.8945 10.1408 14.7341 10.3009L10.0793 14.9557C9.91888 15.1161 9.91888 15.3762 10.0793 15.5366L14.7341 20.1914C14.8143 20.2716 14.9197 20.3114 15.0247 20.3114C15.1298 20.3114 15.2351 20.2713 15.3153 20.1914L19.9702 15.5366C20.1306 15.3762 20.1306 15.1161 19.9702 14.9557L15.315 10.3009ZM15.0244 19.32L10.9504 15.246L15.0244 11.172L19.0981 15.246L15.0244 19.32Z" fill="white"/>
    <path d="M17.7011 7.50398C17.5404 7.34388 17.281 7.34358 17.1203 7.50398C16.9599 7.66438 16.9599 7.92443 17.1203 8.08482L22.3231 13.2873C22.4036 13.3675 22.5083 13.4076 22.6137 13.4076C22.719 13.4076 22.8237 13.3675 22.9042 13.2873C23.0646 13.1269 23.0646 12.8669 22.9042 12.7065L17.7011 7.50398Z" fill="white"/>
    <path d="M7.57078 17.6352C7.41038 17.4751 7.15033 17.4751 6.98993 17.6352C6.82953 17.7956 6.82953 18.0557 6.98993 18.2161L12.1924 23.4186C12.2726 23.4988 12.378 23.5386 12.483 23.5386C12.588 23.5386 12.6934 23.4985 12.7736 23.4186C12.934 23.2582 12.934 22.9981 12.7736 22.8377L7.57078 17.6352Z" fill="white"/>
</svg>
