<?xml version="1.0" encoding="UTF-8"?> <svg xmlns="http://www.w3.org/2000/svg" xml:space="preserve" style="shape-rendering:geometricPrecision;text-rendering:geometricPrecision;image-rendering:optimizeQuality;fill-rule:evenodd;clip-rule:evenodd" viewBox="0 0 1605.94 397.55"> <defs> <style>.fil6{fill:#2b2a29;fill-rule:nonzero}</style> </defs> <g id="Слой_x0020_1"> <path d="M383.21 320.4c.06-.63.09-1.27.09-1.9.23.34.45.69.68 1.04.99 1.59 1.78 3.17 2.57 4.76.6.79 1 1.78 1 2.78.19 0 .4.19.4.4.59 2.57.79 5.15.59 7.73 0 .4-.19.59-.4.79-.19-.79.2-1.39.2-2.18 0-1.98-.2-3.97-.79-5.76-.2-.4-.2-.59-.2-.99-.59-.79-.99-1.79-1.38-2.78-.79-1.42-1.71-2.72-2.75-3.89zM327.13 92.54l-.08 2.27.08-2.27-.06.24-.41 8.18c-.19 2.78-.4 5.35-.59 8.13-.32 4.36-.87 8.6-1.57 12.71.1.46.23.91.38 1.38 1.19 3.76 2.18 7.54 3.17 11.5 1.78 6.74 2.97 13.49 3.97 20.43.16 1.33.19 2.79.08 4.27.75 4.81 1.31 9.78 1.51 14.57 0 .79 0 1.59-.2 2.38-.4 2.57-.59 5.16-.79 7.73-.19 2.98-.19 5.95-.19 8.92.03 1.01.06 2.02.11 3.03.4 5.93.97 11.87 1.87 17.8.79 4.95 1.78 9.92 3.17 14.68.4 1.38.99 2.77 1.78 4.16.42.66.86 1.31 1.3 1.97-.49-1.98-.79-3.96-1.09-5.93-.6-3.76-1.19-7.33-1.59-10.9-.4-3.57-.79-7.74-1.19-11.5-.6-6.74-.6-13.29-.79-20.04 0-7.33-.6-14.68-1.39-22.01-.99-7.93-2.18-15.87-3.97-23.6-.79-4.17-1.98-8.14-3.17-12.1-.19-.4-.19-.99 0-1.38.6-2.98 1-6.15 1.19-9.12.2-1.79.2-3.57.4-5.16h.2c.19 2.97.79 5.95 1.78 8.73 2.38 7.93 4.17 15.87 5.55 24 .6 2.78 1 5.76 1.19 8.73 0 1.19-.19 2.58-.4 3.77-.4 3.97-.4 7.93-.4 11.89 0 4.57.2 9.12.4 13.69.4 6.94.79 13.68 1.59 20.43.6 6.55 1.59 12.9 2.78 19.24.6 2.97 1.39 5.95 2.58 8.92.99 2.19 2.18 4.17 3.57 6.15 5.55 8.13 10.31 16.65 14.48 25.58 2.58 5.55 5.16 11.11 7.74 16.66 3.57 7.93 7.13 15.67 10.9 23.4.19.4.19.59.4.99.79 1.59 1.78 3.17 3.17 4.36 3.17 2.98 5.55 6.74 6.14 11.11.4 2.38.4 4.56 0 6.94-.19 2.19-.59 4.17-.79 6.35-.4 2.19 0 4.57 1 6.55.59 1.59 1.19 3.17 1.19 4.95.37 2.14.67 4.34.94 6.53l.05.02-.04.06c.15 1.25.3 2.49.44 3.7 0 0 0 .2-.19.4a60.54 60.54 0 0 1-4.19-1.02c-4.57 2.44-11.41 4.27-12.47 7.97-7.14-.4-14.09-.6-21.23-.79-12.49-.6-24.98-.79-37.48-.79h-22.61c-14.48.19-28.76.4-43.23.79-6.15.19-12.3.4-18.45.59-6.54.4-13.09.6-19.63 1-4.36.19-8.73.59-13.09.79l-17.45 1.19c-2.57.19-5.16.4-7.73.59l-10.12.79-3.76.4c-1.59-1.59-3.17-3.17-5.16-4.36-2.04-1.49-3.65-3.38-5.03-5.51-2.23.66-4.76 1.45-6.14 1.7-1.19.2-.69-2.5-.69-3.5 0-7.94 4.71-21.14 8.21-27.71 4.11-7.73 9.93-13.54 10.18-13.82.19-.2.39-.4.59-.6.44-.26.75-.64.93-1.06-.6-1.38-1.39-2.98-.91-3.45.59-.4.79-1.39.4-1.98-.4-.79-.6-1.79-.79-2.19-.2-.4-.2-.79.4-.99.15-.17.49-.37 1.05-.73 1.98-1.39 3.97-2.98 5.76-4.57 2.98-2.55 6.31-4.61 6.61-8.84-.44-1.22-.83-2.45-.65-3.49-.3-.47-.7-.88-1.22-1.19-1-.6-1.98-1-2.98-1.59-1.7-.53-1.78-1.93-1.4-3.57a7.295 7.295 0 0 1-.62-7.57c1.39-3.37 2.38-6.74 2.98-10.11.79-3.17.79-6.35.19-9.52-.79-3.17-2.97-5.76-5.95-6.95-2.78-1.19-5.75-1.98-8.73-1.98-4.36-.19-8.73 0-13.08.6-.79 0-1.39-.2-1.98-.6-1.98-1.38-3.77-2.97-5.55-4.76l-3.57-3.57c-3.77-3.96-7.34-8.13-10.52-12.69l-.19-.29v.09c-.79-.59-1.39-1.38-1.79-2.38-2.97-4.36-5.35-8.92-7.54-13.68a81.735 81.735 0 0 1-5.35-16.66c-1.39-6.35-1.98-13.09-1.59-19.64 0-.59 0-1.38.19-2.18.43.43.86.88 1.25 1.36-.04-1.69-.27-3.35-.66-4.93-1.19-5.55-1.19-11.5.19-17.06 1-3.76 2.98-7.54 5.55-10.51.2-.4.6-.79 1-1.19 1.19-1 2.18-2.38 2.57-3.97 1.79-4.57 4.57-8.73 7.93-12.3 1.59-1.79 3.38-3.17 5.36-4.57.4-.19.59-.4.99-.59.79-.2 1.79-.4 2.58-.6-1.39 1.19-2.98 1.98-4.76 2.19 1.78-.2 3.37-1 4.76-2.19l.99-.4c5.36.79 10.31-.19 12.1-4.36l.19-1.38c3.97-.79 7.73-1.39 11.7-1.79 4.36-.4 8.73-.4 13.09 0 1.19 0 1.19 0 1.19-.99.2-4.36 1-8.53 2.38-12.5.91-2.8 2.15-5.48 3.65-7.98 1.81-4.48 4.6-8.61 8.06-12.25 2.57-2.57 5.35-4.75 8.33-6.54.4-.4.79-.59 1.19-.59.99 0 1.98-.2 2.97-.6.4 0 .79-.19 1.39-.19-.87 1.3-1.74 2.61-2.61 3.83 1.13-.47 2.26-.89 3.41-1.25.99-.19 1.59-1 1.98-1.78 1.78-4.76 4.95-8.93 9.12-12.1 3.17-2.38 6.74-4.16 10.71-5.35 3.76-1.19 7.54-1.79 11.5-1.98 5.16-.4 10.11.19 15.07 1.78h1.19c.79-.19 1.59-.4 2.38-.4 2.12-.33 4.29-.48 6.49-.51-.44-.54-.87-1.1-1.34-1.67-.59-.79-1.19-1.59-1.98-2.38-.4-.4-.59-.79-.79-1.19 1-.2 1.79-.4 2.78-.4.2.19.6.19.79 0h.4c.2.4.79.4 1.19.59 2.38.79 4.57 1.79 6.74 2.98 1.59.79 2.98 2.18 3.57 3.97.08.22.15.43.23.65.56.45 1.08.96 1.55 1.53.4.6 1.19.79 1.78.79.79 0 1.79-.19 2.78-.19.86.04 1.72.11 2.58.19 0-.06-.01-.13-.01-.19 0-1.39-.19-2.98-.79-4.36 1.59 0 3.17.19 4.76.59 2.38.6 4.57 2.19 5.95 4.36.6.2.79 1 .79 1.59l-.17.5.37.09c4.57.6 9.12 1.79 13.49 3.38 1.13.4 2.22.87 3.26 1.4.45-.38.87-.78 1.3-1.2.4-.4.6-.6.79-1 .79-.79.79-1.98.4-2.97 0-.2-.19-.4-.19-.6.59 0 .79.4 1.19.6 2.38 1.78 4.36 3.97 5.95 6.35 2.18 3.57 3.97 7.33 5.16 11.3.19.6.4.99.59 1.59.2.79 1 1 1.79.79.19 0 .19-.2.4-.2 1.19-.79 2.57-1.19 3.97-1.98.19-.19.59-.19.79-.19.79-.2.99-.2 1.38.59.4 1.19.6 2.38.4 3.57-.4 2.98-1.38 5.95-2.57 8.73 0 0-.2.2-.4.2-.04-.3-.08-.6-.14-.88-.15.84-.35 1.65-.66 2.47-.57 2.09-1.51 4.36-2.1 6.65zm-2.55 15.02c.08-.61.18-1.22.29-1.83l.15-1.28c-.18 1.04-.32 2.07-.44 3.11zm3.86 5.51h-.2c-.19-4.56 0-9.12 1-13.68-.4 4.56-.79 9.12-.79 13.68zm-4.2-37.9c-.78-.38-1.63-.64-2.54-.77-.39 0-.72-.14-.99-.35.01.38.01.76-.01 1.14v1.19c.6-.2 1.19-.4 1.79-.6.58-.23 1.17-.46 1.75-.62zm48.6 222.06-4.51-9.67c.65.6 1.24 1.41 1.56 2.23 1.16 2.48 2.18 4.96 2.95 7.44zM218.5 264.87l-.01-.02c.15.77.31 1.51.47 2.13-.15-.76-.31-1.4-.46-2.1zm-96.73-91.71c.4 1.59.79 2.98 1.19 4.36-.4-1.38-.79-2.97-1.19-4.36zm5.55 49.59-.19-.19.19.19c0 .2.2.6.4.79-.19-.19-.4-.59-.4-.79zm1.39-47.21v.4-.4zm0 .6c0 .19.19.19.19.4 0-.2 0-.2-.19-.4zm5.95-1.79c0 .2-.2.2-.4.2.4 0 .4 0 .4-.2l2.38-1.19-2.38 1.19zm4.56-41.05c-.4-.19-.79-.4-1.19-.59-1.19-.4-2.38-.79-3.57-1l-1.19-.19 1.19.19c1.19.2 2.38.6 3.57 1 .4.19.79.4 1.19.59.79.4 1.59.79 2.38 1.19-.79-.4-1.59-.79-2.38-1.19zm16.47 16.26c.79-.4 1.38-.79 2.18-1.19-.59.4-1.39.79-2.18 1.19zm60.69 108.89c-.59.19-.99.59-1.59.99l-.59.6.59-.6c.6-.4 1.19-.59 1.59-.99zm7.54-4.96c-1.59.79-2.97 1.59-4.36 2.38 1.59-.99 2.98-1.78 4.36-2.38.2-.4.6-.59.79-.79-.2 0-.4.4-.79.79zm31.34-16.46-2.38 1.78 2.38-1.78v-.2.2zm11.9-50.18.59-.4-.59.4zm37.88-126.93c-.2-.2-.4-.2-.79-.4-.4-.2-1-.6-1.39-.79l-.79-.4.79.4c.6.19 1 .4 1.39.79.4 0 .59.19.79.4l.19.19-.19-.19zm15.67 35.1-.07 2.15.07-2.15zm.76 34.66.03-12.05-.03 12.05zm.03-12.05c0 .79-.19 1.59-.19 2.38 0-.79 0-1.59.19-2.38zm0-4.76v1.59-1.59c0-1 0-2.19.2-3.17 0 .99 0 1.98-.2 3.17zm14.03 187.46-5.81-2.95 5.81 2.95z" style="fill:#d38e45;fill-rule:nonzero"></path> <path d="M433.37 372.38c-156.64-9.98-297.04-3.07-421.19 20.74 183.28-56.97 323.67-63.88 421.19-20.74z" style="fill:#d97744"></path> <path d="M481.75 315.57c-4.36 4.16-8.93 8.33-13.69 12.09-2.37 1.98-4.95 3.77-7.53 5.76-4.36 3.17-8.93 6.14-13.49 8.92-3.17 1.98-6.55 3.76-9.92 5.75a160.95 160.95 0 0 1-11.9 5.95c-4.36 2.19-8.93 4.17-13.69 5.95-.79.4-1.78.79-2.57 1-.6 0-1.19-.2-1.59-.6.19-.4.79-.4 1.19-.59 1.98-1 4.16-1.79 6.14-2.78 3.97-1.98 7.93-3.97 11.71-5.95 3.17-1.79 6.35-3.77 9.52-5.76 4.76-2.97 9.52-6.35 13.88-9.91 2.57-2.19 5.16-4.36 7.54-6.74 3.17-3.17 6.35-6.35 9.32-9.72 16.95-18.94 31.01-40.99 39.47-65.06 18.28-51.17 5.41-94.27-42.44-121.18-18.22-9.54-37.11-14.48-57.92-13.49-6.95.19-13.68 1.19-20.43 2.57-6.95 1.59-13.69 3.57-20.23 6.35-3.38 1.39-6.55 2.98-9.92 4.57-.4.19-.6.59-1.19.4v-.6c.19-4.76.4-9.71.4-14.48-1.13-22.6-5.42-43.96-18.05-63.27-12.4-19.18-29.88-32-51.56-38.68-26.88-8.06-52.54-5.82-78.15 4.96-33.6 15.4-62.73 48.43-71.4 85.28-1.59 1-3.17 1.79-4.76 2.58.2-1.98.6-3.97 1.19-5.95 2.96-12.85 7.86-26.93 14.68-38.28C161.57 36.59 184 19.95 212.8 7.94c21.06-7.61 45.31-10.36 67.44-5.55 28.39 5.07 53.63 22.02 69.81 45.81 11.87 16.96 18.03 38.78 19.24 59.3v1.19c0 .4.19.79.79.4 1.38-.59 2.78-.99 4.16-1.38 7.14-2.19 14.28-3.77 21.62-4.76 24.51-3.41 47.49.87 69.82 11.11 22.31 10.63 41.62 27.78 52.16 50.38 3.38 7.14 5.95 14.68 7.74 22.21 10.63 46.78-10.98 96.06-43.84 128.92z" style="fill:#5a9c5d;fill-rule:nonzero"></path> <path d="M125.55 173.95c1.98.6 3.97.2 5.75-.99-.59-.6-1.78-.6-2.18-1.59 1.19-1 2.57-1.79 3.76-2.78.79-.4 1-.79.4-1.79-.4-.59-.4-1.38-.4-1.98 0-1.38-.19-2.57-.79-3.76-.79-1.98-.19-3.97 1.39-5.36.99-.79 2.18-1.19 3.37-.79.4 0 .4.19.4.59-.19 1.98-.19 1.98 1.79 1.19h.19s.2-.2.2 0 0 .2-.2.2c0 .59-.4 1.19-.4 1.78 0 .2.2.6.4.6s.4 0 .6-.2c.79-1.39 2.57-1.78 3.97-2.58 2.78-1.38 4.56-4.36 4.56-7.33 0-.4-.19-.79.4-1l-.19-.19c-1.39-.4-1.79-1-1.59-2.38 0-.79.4-1.59.59-2.19.6-.79.6-1.78 0-2.57-.99-1.98-2.18-3.77-3.57-5.55-2.38-2.97-5.35-5.16-8.92-6.54 0 .19-.2.19-.4.19-1.59.2-3.17.4-4.76.79-3.57.6-7.14 1.59-10.52 2.98-3.97 1.59-7.54 3.97-10.31 7.14-.4.4-.59.79-.79 1.38-.79 1.79-1.38 3.77-1.78 5.55v2.98c-.2.4.19.79.59.99h.2c.99.2 1.78.4 2.78.79.4.2.59 0 .59-.4.2-1.19 1-1.59 1.98-1.78 1-.2 1.19-.2 1.59.59.4.79.79 1.59 1.19 2.38.2 0 .4 0 .6-.19 1.98-1 4.16-1.39 6.54-1.19 2.19.39 4.36.99 6.55 1.78.59.2.99.4 1.59.79.4.19.79.79.59 1.38-.19 1-.79 1.79-1.59 2.38-.79.4-1.38 1.19-2.57 1-1-.2-1.79.4-1.98 1.19-.2.79-.4 1.78-.2 2.78.4 1.59.79 3.17 1.39 4.76.4.99.4 1.19-.6 1.59-.79.59-1.78 1.19-2.78 1.59-1.38.59-2.57 1.59-4.16 1.19.4 1.59.79 3.17 1.19 4.76 2.18 0 4.36-.4 6.54-.79-.59-.6-.79-1-.99-1.39zm23.8-14.08c0-.59 0-1.19.4-1.98.99-2.78.79-5.95-.4-8.73-.2-.19-.2-.59-.2-.79 3.37-.99 6.54-2.38 9.52-4.36l2.78-1.59c.4-.19.79-.4 1.19-.4 1.38 0 1.98.6 1.78 1.98 0 .4-.19.6-.4 1-.79 1.38-1.78 2.78-2.78 3.97-1.38 1.59-2.78 3.17-4.36 4.56-1.59 1.39-3.57 3.38-5.35 4.76-.79.4-1.19 1.19-2.18 1.59z" style="fill:#5d4837;fill-rule:nonzero"></path> <path d="M259.42 151.75c-.19-.4-.59-.4-.99-.4-1.59-.2-2.98-.2-4.57-.2l-5.35.6c-1.39.4-2.58.59-3.97.79h-3.97c0 .59.4.99.79 1.19 2.18 1.98 3.76 4.16 5.75 6.35.2.19.4.59.6.99-1.59-.59-2.98-1.38-4.57-1.98-2.57-.79-5.16-1.38-7.73-1.78-3.38-.4-6.74-1.59-9.92-3.17a17.421 17.421 0 0 1-6.74-6.95c-.6-1.19-1.19-2.57-1.78-3.76-1.98-3.77-4.36-7.34-7.14-10.52-2.19-2.38-4.36-4.56-6.74-6.54-2.98-2.58-5.95-5.16-9.33-7.54-1.38-1-2.78-1.98-4.36-2.98-.4-.4-.99-.4-1.59-.19a25.672 25.672 0 0 1-7.54 2.38c-.99.19-2.18 0-3.17-.6-1.19-.59-2.18-1.19-2.97-1.98-1.59-1.59-3.38-2.78-5.55-3.57-2.19-.99-4.56-1.38-6.94-.99-3.38.59-6.55 1.59-9.52 2.97-3.38 1.39-6.74 2.78-10.12 3.97-4.36 1.79-8.52 3.57-12.69 5.36-3.76 1.59-7.33 3.57-10.71 5.75-.19.2-.79.2-.4.6-.59.4-1.38.79-2.18.99 0-.59.19-1.19.4-1.78 1.59-3.97 3.97-7.54 6.94-10.71 2.98-3.38 6.35-6.15 10.31-8.14 5.36-2.78 11.11-4.76 17.06-5.75 3.17-.6 6.14-.79 9.32-1.19 1.79-.2 3.77 0 5.55 0 2.98 0 5.76.19 8.73.4h.6c.59 0 .99-.2.99-.79 0-1.39.2-2.78.2-4.17.19-2.18.59-4.56.99-6.74 0-.2.2-.4.4-.4s.4 0 .4.19c.4 1.19 1.19 2.38 2.19 3.17.4.4.59.4.79-.2.99-2.18 2.38-4.16 3.57-6.34 1.78-2.78 3.76-5.55 5.75-8.14 2.58-3.57 5.16-6.94 7.74-10.71 1.38-1.59 2.57-3.37 3.57-5.16-.6 0-1 .2-1.39.2-.99.4-1.98.59-2.97.59.19-.4.59-.59.99-.79 2.98-.99 5.95-1.98 8.93-3.17.59-.19 1.19-.19 1.59.2.79.99 1.78 1.59 2.97 1.98.6.19.4.59.4.99-.4.6-.79 1.39-1.19 1.98-.79 1.19-1.59 2.58-2.18 3.97-.79 1-.6 2.38.19 3.38.4.4-.19.99 0 1.38.4-.19.6-.79.79-1.19.2-.4.4-1.19 1.19-1.38.4.79.4 1.59.4 2.38v2.97c0 2.78-.19 5.55-.99 8.14-.6 2.57-1.19 5.16-2.19 7.73-.19.4-.19 1-.59 1.19-.4-.19-.4-.59-.4-.79v-3.97c0-.4.19-1.19-.4-1.38-.6-.2-.79.79-1 1.19v.19c0 .79-.4 1.79-.19 2.58.19 1.78.19 3.76.4 5.55 0 .4.19.59-.2.79-.4.19-.59-.2-.79-.4-.79-1.19-2.18-1.98-3.76-2.19-1.59-.19-2.98-.19-4.57 0-1.98.4-3.76 1-5.55 1.59-2.38 1-4.76 1.98-7.14 3.38l-.59.59c-.4 1.39-.6 2.78-.6 4.17 0 .79.4.99 1.39.79.4-.2.59-.4.99 0 1.19.99 2.98 1.38 4.57.79h.59c4.17 0 8.14.99 11.5 3.17 3.77 2.18 6.95 5.16 9.52 8.52 2.98 3.77 5.36 7.93 7.54 12.3.2.6.6 1.19 1 1.98 2.18 2.78 4.56 5.55 6.94 8.13 2.97 3.17 6.35 5.76 10.31 7.74.19 0 .4.19.59 0-.19-.4-.4-.6-.79-.79-2.78-2.78-5.55-5.16-8.13-7.93-2.58-2.78-4.96-5.55-7.14-8.52-2.78-3.77-4.76-7.74-5.95-12.3 0-.2-.19-.4-.4-.6-1.19-1.78-2.78-3.57-4.36-5.16-2.18-2.18-4.76-3.97-7.54-5.35-4.76-2.38-9.92-3.77-15.07-3.97-.59 0-.99 0-1.59-.2 1-.79 1.79-1.38 2.98-1.98 2.18-.99 4.56-1.59 7.14-1.38 4.36-.2 8.52 2.18 10.51 6.14.6 1.19 1.59 1.98 2.78 2.38 1.19.4 2.38 1.39 3.17 2.38 0 .2.2.2.4.4 1.79 1.39 3.17 2.98 5.16 4.17.6.4.99.99.79 1.59 0 1.19.4 2.38 1.19 3.37 1.59 1.98 3.17 3.97 4.56 5.95 2.98 3.97 5.36 8.33 6.95 12.9 0 .4.19.59.4.99 1.59 2.78 3.76 5.16 6.54 6.74 1.19.6 2.38 1.19 3.57 1.98 1 .79 2.19 1.19 3.38 1 .59-.2 1.19-.2 1.78-.4 2.98-1 5.95-2.38 8.53-4.17 4.56-3.37 10.31-4.36 15.67-2.78.6.2 1.38.4 2.18.4-.19 1.39-.4 2.98-.59 4.36-1.39-.79-2.78-1.59-4.36-1.98a5.04 5.04 0 0 0-2.38 0c-1.59.4-3.38 1-4.76 1.98-.79 1.19-1.78 2.38-2.78 3.17zm25.99 56.92c-.4-.2-1-.2-1.39-.2-.99 0-2.18.2-3.17.2-1.78.19-3.57.59-5.35 1.19a28.339 28.339 0 0 0-6.95 4.56c-2.18 1.79-4.16 3.97-5.95 5.95-.79 1-1.59 1.98-2.38 2.98v-1c0-2.38.2-4.56.4-6.94 1.19-5.95 3.17-11.71 6.15-17.06 1.19-1.98 2.18-3.97 3.17-6.15.59-2.18 1.19-4.36 1.78-6.54 0-.2 0-.4-.19-.6l-.6.4c0-.99.2-1.98.4-2.97.2-1.39.4-2.58.4-3.97.4-3.17.4-6.55.4-9.72-.2-3.76-.6-7.53-1.59-11.11a16.92 16.92 0 0 0-2.98-5.95l-.19-.4c-.79-.99-2.18-1.38-3.38-.99-.79.4-1.98.4-2.57 1.19.19.2.4.2.59.4 2.98 1.38 5.16 3.97 5.95 7.34.6 2.57.79 5.35.6 7.93-.2 3.17-.79 6.35-1.38 9.33-1 5.16-2.58 10.31-3.77 15.67-.4 1.98-.79 3.77-.99 5.76-.2 1.78-.4 3.37-.79 5.16-.2.79-.4 1.78-1.59 1.98-.2 0-.4.4-.79.59-2.38 2.19-4.57 4.76-6.55 7.34-1.98 2.57-3.97 4.95-6.14 7.33-1.79 1.79-3.57 3.57-5.55 5.16-3.57 2.98-7.54 5.16-12.1 6.35-3.57.79-7.54 1-11.11.2-2.18-.4-4.16-1.19-6.14-1.98-1.59-.79-3.38-1.19-5.16-1-1.59 0-3.17-.19-4.76-.4-3.17-.4-6.54-.99-9.71-1.78-4.36-1.19-8.73-2.58-12.9-4.36-4.16-1.79-8.33-3.77-12.3-5.95-3.17-1.79-6.14-3.77-8.92-5.76-3.17-2.18-6.15-4.56-9.12-7.14-3.57-3.17-6.94-6.74-10.12-10.51-2.18-2.58-4.16-5.16-6.14-7.74-1.98-2.57-3.57-5.35-5.35-8.13-.4-.6-.6-1-.79-1.59-.2-.2-.2-.4-.4-.6-2.19.4-4.36.79-6.55.79v.4c1.19 4.36 2.58 8.73 4.36 13.09 1.79 4.36 3.97 8.73 6.55 12.9 2.38 3.76 5.16 7.14 8.33 10.11 1.19 1 2.57 1.98 3.97 2.78 3.37 1.59 6.74 3.57 9.71 5.95 2.98 2.19 5.95 4.57 8.73 7.14 3.17 2.78 6.14 5.76 9.12 8.73.19.2.4.6.59 1 1 1.59 1.98 3.17 3.38 4.36 2.78 2.57 5.95 4.75 9.32 6.35 4.36 1.78 8.73 3.17 13.49 3.97 1.79.39 3.38.59 5.16.39.4 0 1 0 1.39.2.79.4 1.59.79 2.38 1 1.98.79 3.97 1.38 5.95 1.59 3.57.19 7.14-.4 10.51-1.79.4-.19.79-.4 1.19-.59 1.39-1 2.98-1.98 4.57-2.38.79-.2 1.38-.6 1.98-1 4.36-3.17 8.13-6.94 11.7-11.3 4.36-5.36 8.33-11.11 11.7-17.26 1-1.78 2.19-3.76 2.98-5.75.19-.2.4-.6.79-.6.4 0 .4.4.4.79 0 1.39 0 2.98-.4 4.36-1 5.16-3.17 9.72-6.35 13.88-.79 1-1.59 1.98-2.38 2.98l.19-.01c.2 0 .6-.19.79-.4 1.59-.99 2.98-1.98 4.57-2.97 2.78-1.78 5.55-3.37 8.33-4.76 1.59-.79 2.97-1.38 4.76-1.78.59-.2 1.19-.2 1.59 0a88.888 88.888 0 0 1-5.76 6.35c-.99.79-1.98 1.78-2.78 2.78.4 0 .79-.2 1.19-.4 2.19-1.79 4.17-3.38 6.15-5.16 1.98-1.79 3.76-3.77 5.55-5.76 1.38-1.59 2.78-3.17 4.16-4.95 1.98-2.38 3.77-4.57 5.55-6.95.79-1.19 1.79-2.18 2.78-3.17 1.19-.59 1-.99-.19-1.38zM107.9 168.21c.2-1.59 0-3.38-.59-4.96-.6-1.78-.6-3.57-1-5.35 0-.2 0-.2.4-.4.4-.19.6.59.79.99.79 1.39 1.39 2.98 1.98 4.36.4.79.6 1.39 1 1.98.4.6.4.79.99.6.6-.19.4-.6.6-1 0-.99-.2-1.78-.4-2.78-.4-1.38-.79-2.77-1.19-3.97-.2-.39-.2-.79.4-.99.59-.2.99-.2 1.19.6.59 2.37 1.19 4.95 1.98 7.53 1.98 7.54 4.16 15.07 6.54 22.42 1.39 4.36 2.98 8.52 4.76 12.49 1 2.58 2.58 4.96 4.17 7.14.4.6.99 1 1.59 1.39 3.76 2.78 7.14 5.75 11.11 8.33 2.57 1.78 5.16 3.76 7.54 5.75 2.77 2.19 5.75 4.57 8.52 6.95 1.59 1.38 3.17 2.97 4.76 4.36.59.59 1.19 1.38 1.78 2.18.4.4.4.99 0 1.38-.4.6-.59 1.59-1.38 1.98-.79.4-1.59-.19-2.38-.4-3.38-.79-6.95 0-9.72 1.98-.4.2-.79.6-1.19 1-.79 1-1.98 1.38-3.17 1.38-.79 0-1.59.2-2.38.2-1.19 0-2.18-.4-2.97-1.19-2.78-2.18-5.36-4.76-7.93-7.14-3.17-3.17-6.14-6.54-8.73-10.11-.4-.4-.99-.79-.99-1.39 0-.19 0-.4-.4-.59 0-.2 0-.6-.2-.79-.59-1.19-.99-2.38-1.59-3.57-.4-1-.79-2.19-.79-3.38 0-3.17-.19-6.14-.59-9.12-.2-2.57-.6-5.16-1-7.73-.59-3.97-1.59-8.14-2.78-11.9-1.38-4.76-3.57-9.33-6.14-13.69-.4-1.98-1.39-3.37-2.58-4.56zM255.86 54.17c.6.4 1.19.6 1.79.79 2.18 1 4.36 2.19 6.54 3.57 1.98 1.39 3.77 3.17 5.16 5.16a91.78 91.78 0 0 1 8.33 13.09c2.98 5.76 5.55 11.9 8.14 17.85.19.2.19.4 0 .6-1-.6-2.19-1.39-3.17-1.98-4.36-3.17-8.14-7.14-10.91-11.71-1.38-2.18-2.57-4.56-3.57-6.94-1.38-3.17-3.37-5.95-5.55-8.53-1.19-1.38-2.38-2.57-3.57-3.76-1.98-1.79-4.36-3.38-6.74-4.36-2.57-1-5.35-1.79-8.13-1.98-1.79-.2-3.57-.2-5.16 0-3.77.4-7.34 1.38-10.91 2.57-.19.2-.59.2-.99 0 .2-.4.59-.4.99-.59.4-.2.79-.4.4-1-.4-.59 0-.79.4-.99.79-.4 1.79-.6 2.78-.79 3.57-.79 7.14-1 10.71-1.39 1.98-.19 3.97-.59 6.15-.59-.79-.6-1.79-.79-2.78-1-1.79-.4-3.38-.59-5.16-.4-3.77 0-7.74.6-11.3 1.98-1.39.6-2.98 1-4.36 1.59-2.58 1.19-4.96 2.58-7.34 4.17-.19.19-.59.4-.99.4h-4.76c-1-.2-1.98-.4-2.98-1-.4 0-.59-.4-.4-.79v-.19c.2-.6.4-1 .6-1.59.05.05.1.08.15.11 2.17-4.24 5.29-7.9 9.37-10.62 4.95-3.17 10.71-5.16 16.65-5.75 1.39-.2 2.58 0 3.97.4 1.54.19 3.07.57 4.6.95.06-.06.16-.21.16-.36 3.17.79 6.15 1.79 9.12 3.17 3.17 1.39 6.15 3.38 8.53 5.76 1.19 1.19 2.38 2.38 3.76 3.57l.4.19c0 .2 0 .2.2 0h-.2c.2-.59-.4-.99-.79-1.59-.4-.59-.99-.99-.99-1.78.79 0 .99.59 1.19.79a39.07 39.07 0 0 1 5.75 5.75c.2.2.4.4.4.79-1.19-.19-1.59-1.19-2.57-1.78-.2.4 0 .79.19 1.19.79 1.19 1.59 2.38 2.58 3.57.59.79 1.38 1.19 1.59 2.18-.2 0-.6 0-.79-.19a55.173 55.173 0 0 0-10.12-6.55c-1.78-.99-3.76-1.78-5.75-2.18 0 .4-.2.4-.6.19-.19-.19-.4-.4-.59-.19-.2.19.19.19.19.19h.4zm60.89 33.12c-.19 0-.19 0-.4-.19-4.36-3.77-9.32-6.74-14.48-9.32-3.38-1.79-6.55-3.58-9.52-5.55-1.59-1-2.98-2.38-3.97-3.97-.6-.79-.79-1.79-.6-2.78.2-.4 0-.79-.59-.79-3.57-.6-6.74-2.38-8.92-5.36-2.78-3.17-4.76-6.74-6.15-10.71-.59-1.78-1.78-3.17-3.57-3.97-2.18-1.19-4.36-2.18-6.74-2.97-.4-.2-.99 0-1.19-.6 2.98-.79 5.95-.4 8.73.79 1.39.6 2.58 1.39 3.77 2.38.39.4.59.79.79 1.39-.99 0-1.78-.79-2.97-1 3.76 3.57 7.14 7.34 10.31 11.3.4-1.59-.2-3.17-1.59-4.16-.79-.4-1.19-1.19-1.19-1.98v-.99c0-2.19 0-2.19 2.38-2.38.59 1.38.79 2.78.79 4.36 0 .59.19 1.38.59 1.78.4.99 1 1.98 1.59 2.78 1.39 1.98 2.98 3.76 4.36 5.75.2.2.2.4.6.2.59-1.59 1.38-2.98 1.98-4.56.59-1.59.99-2.58 1.59-3.77.79.79.79 1.79.99 2.78.4 3.77 0 7.54-1.38 11.11-.4 1.59-.2 2.18 1.59 2.78 1.78.59 3.76.79 5.75.4 2.58-.6 5.16-.79 7.74-1.39 2.18-.4 4.36-1.19 6.35-2.18.4-.2.79-.2 1.19 0l.4.2c1.38.79 1.38.79.79 2.18-.79 2.38-1.19 4.96-.79 7.54 0 .59.4 1.19.79 1.59.79.79 1.59 1.19 2.38 1.98.4.4.79.19 1.19 0 .52-.35 1.03-.69 1.55-.91-.11-.42-.47-.72-.96-.88-1.78-.4-2.97-1.98-2.78-3.76-.4-1.98 0-4.16.6-6.14.99 1.38 1.98 2.97 2.57 4.56.2.6.79 1.19 1.59 1.19 2.58.4 4.96 1.98 6.15 4.36.19.4.19.6.19 1-.19 0-.4-.2-.59-.4-1.39-1.19-3.38-1.39-4.96-.2-.4.4-.99.6-1.59.79l-.03-.04c-.4.72-.47 1.55.03 2.23 1 1.78 1.59 3.76 1.98 5.75v.99c-.19.2 0 .6.2.79.4.2.59 0 .79-.19.79-.4 1.19-1.19 1.38-2.19 0-1.59.4-3.17.79-4.76.2-.39.2-1.19 1-.99.59 0 .99.6.99 1.19 0 1.98-.19 4.16-.4 6.14-.4 1-.59 1.98-.59 2.98-.4 2.78-.79 5.75-1.19 8.52-.2 1.79-.4 3.38-.6 5.16-.19 2.19-.4 4.36-.79 6.55-.19 1.59-.19 3.17-.4 4.76-.19 2.57-.19 4.95-.19 7.54 0 .4 0 .59.4.59l-1 4.17c-1.59.99-3.76.79-5.16-.4-.4-.4-.59-.79-.59-1.19 0-1.39.19-2.98.4-4.36.59-3.57 1.19-7.34 1.78-10.91.4-2.57.6-5.16 1-7.93v-3.76c0-.4 0-.79.19-1 0 0 .2 0 .2.2.59 2.38.99 4.76 1.59 6.94 0 .79.19 1.79.59 2.38 0-1.98-.19-3.97-.59-5.95-.4-2.97-1-5.95-1.59-8.92-.79-3.97-1.98-7.93-3.77-11.71-.59-1.38-1.59-2.77-2.78-3.76-.59-.59-1.38-.79-2.18-.79.59 1 1.19 1.79 1.78 2.58.79 2.97 1.79 4.95 2.38 7.13zm-2.38-22.6c-1.38 0-2.57.4-3.97.79-3.57.99-7.33 1.38-11.11 1.38-2.18 0-3.97-1.59-4.16-3.57-.4-3.76.19-7.54 1.19-11.11.2-.4.2-.99.4-1.38.2-1 .79-1.19 1.78-1.39 1.59-.19 3.17 0 4.57.4 1.19.2 2.38.6 3.57.79 1.59.4 2.97 1 4.16 1.98-.19.4.2.2.2.2 0 .19.19.19.19.19 0 .2 0 .4.2.6.59.99.4 2.18-.4 2.97-.2.4-.6.79-.79 1-1.78 1.59-3.57 3.17-5.75 4.36-1 .59-1.98 1.19-2.78 1.98l1.59-.4c2.78-1 5.75-1 8.33 0 1.18.19 1.98.59 2.77 1.19zM227.9 280.47c-1 0-1.98-.19-2.78-.79-1.19-.4-2.58-.99-3.57-1.78-1-.79-1.79-.4-2.38.59-.6 1.19-1 2.58-1 3.97-.19 1.19-.19 2.38-.4 3.57-.39 0-.59-.4-.59-.59-1.98-2.98-3.38-6.15-4.36-9.52-.79-2.58-.79-5.16-.2-7.74.79-3.17 2.78-5.75 5.76-7.33-.4 2.18.4 4.36 1.98 5.95.4 1.98.79 3.76 1.38 5.75.79 2.38 2.19 4.36 4.17 5.95.4.4.99.79 1.59 1-.19.4.19.59.4.99zM192 255.08c-1 0-1.98.4-2.98.6-1.98.59-3.76 1.19-5.75 1.59-2.58.59-5.16-.4-6.74-2.38-.2-.4-.6-.79-1.19-1-.4-1.19-1-2.38-1.59-3.37a16.546 16.546 0 0 0-9.33-6.54l-.19-.01c-1.98-.4-1.98-.59-1.19-2.38.19-.59.59-1.19.99-1.78.79-.79 1.98-1 2.78-.2 0 0 .2 0 .2.2 1.78 1.59 3.37 3.17 4.76 4.96.19.19.4.39.4.59.59 1.39 1.59 2.38 2.97 2.98 2.19 1.19 4.57 2.18 6.95 3.17 2.97 1.2 5.95 2.38 9.12 3.38.4 0 .59.19.79.19zm-71.01-90.24c0 .79 0 1.59-.19 2.38 0 .6-1 1.19-1.59 1.39-.79 0-1.39-.6-1.59-1.19-.4-1.59-.6-2.98-.79-4.57-.2-1.58-.4-2.57-.6-3.76v-1.19c0-.4.2-.4.4-.2 1.79 1 2.98 2.38 3.77 4.17.59.79.79 1.98.59 2.97zm156.09-25.98c-1.79-2.97-4.76-4.95-8.33-5.35-1.98-.2-3.77-.2-5.76-.2-.79 0-1.59.4-2.18.6-2.38.99-4.76 1.78-7.34 2.38-2.18.4-4.56.19-6.74-.2-1.98-.59-3.76-1.78-5.16-3.37-2.38-2.78-4.36-5.76-5.95-9.12-.59-1.19-1.38-2.38-2.18-3.57-.4-.6-.2-.79.19-1.19 1.98-1.59 4.76-1.79 7.14-.79 1 .4 1.98.79 3.17 1.38.4-.79-.4-1.38 0-2.18 1 .19 1.79.59 2.78.99.79.4 1.79 0 2.19-.79 0-.19.19-.19.19-.4 0-.19-.19-.4-.19-.4-.2-.19-.6-.4-.6-.59-.4-.6-.19-.79.4-1 1.19-.4 2.38-.19 3.38.6 1.38 1.19 2.78 1.98 4.56 2.78.79.4 1.59.59 2.58.4-2.19-1-3.97-2.78-4.96-4.96-.99-1.98-1.59-4.16-1.78-6.54.4.59.79 1.19.99 1.98.79 1.98 1.59 3.76 2.78 5.55.2.19.4.79.79.59.4-.19.2-.59 0-.99-.99-3.38-2.18-6.55-3.97-9.52-.19-.4-.4-.79-.59-1-1.19-.99-1.19-2.18-1.59-3.57-.6-3.17-2.19-6.14-4.57-8.52-.79-.6-1.78-1-2.38-1.79 1 0 1.79.4 2.38 1 3.38 1.98 5.95 4.95 7.74 8.33.99 1.78 1.78 3.57 2.38 5.35.19.6.59 1 1.19 1.19 2.57 1 5.16 2.58 7.14 4.57a68.77 68.77 0 0 1 5.55 4.95c1 1 1.98 1.79 2.78 2.58 2.19 1.98 4.17 4.16 6.15 6.35.59.4 1.19.99 1.78 1.19 4.96 3.17 8.73 7.54 10.91 12.89 1.19 2.98 2.18 6.15 2.57 9.33.4 2.78.4 5.55.4 8.13 0 4.57-.59 8.93-1.59 13.29-.99 4.75-2.38 9.32-4.16 13.88-1.39 3.77-2.98 7.34-4.57 11.11 0 .2-.19.2-.19.2-.4 0-.2-.4-.2-.4.79-2.98 1.39-6.14 1.98-9.12.6-2.78 1-5.55 1.19-8.13.4-3.77.79-7.54.79-11.31.2-3.57 0-7.14-.59-10.71-.4-3.17-1.39-6.35-2.78-9.32-1.39-2.98-3.97-5.36-6.95-6.55h-.79zm-21.02-30.15c0 .6.19 1 .4 1.19 1.59 1.98 2.78 3.97 4.56 5.95 1 1.39 2.19 2.38 3.57 3.17.4.2.6.6.6.79.19.6.4 1.19.59 1.79.79 2.78 1.79 5.55 2.78 8.33.2 1.19 1.19 1.98 2.19 2.38 1.98.59 3.97.79 6.14.99 1.19 0 2.38.2 3.77.2.4 0 .59.19.79.4.6.59 1.2.99 1.59 1.59 3.57 3.97 6.14 8.52 7.93 13.49.2.4.2.79.79.79.4-.4.2-.79.2-1.39-.4-2.38-1-4.76-1.79-6.94-1.19-3.17-2.97-5.95-5.55-8.14-2.58-2.38-5.76-3.57-9.33-3.76-3.37-.2-4.95-1.19-5.95-4.36 0-.4-.19-.6-.19-1-.2-1.19-.79-2.18-1.39-3.17-.59-.79-.99-1.78-1.38-2.78-.4-.99-.79-1.78-1.39-2.57-1.19-1.39-2.57-2.58-3.97-3.77-1.59-.99-3.17-2.18-4.95-3.17zm18.64 35.7c-1.98-1.78-4.57-2.57-7.34-2.38-3.76.2-7.33 1-10.71 2.38-2.38 1-4.76 1.79-6.94 2.58-1.98.79-4.17.99-6.35.99-2.19.2-4.17-1.19-5.16-2.97-1-1.98-2.19-3.77-3.38-5.76-1.38-2.18-2.57-4.76-3.97-6.94-1.38-2.19-2.97-5.16-4.36-7.74-.99-1.59-1.98-3.17-2.97-4.76 1.38.2 2.57.6 3.57 1.39 3.17 1.98 6.14 4.56 8.33 7.54.79.99 1.19 1.98 1.59 3.17.79 2.78 2.78 5.16 5.35 6.74 2.19 1.19 4.57 1.59 6.95.99 1.59-.19 3.37-.79 4.76-1.38a44.84 44.84 0 0 1 7.33-1.79c1.39-.19 2.78-.4 4.17-.4 2.78-.19 5.55.2 8.13 1.19 1.19.4 2.19 1.39 2.98 2.38-.6 1.79-1.19 3.38-1.98 4.76zm-34.51-74.57c0-.6.4-1.19-.2-1.39-.59-.19-1.38-.19-1.98.4-.99.79-1.78 1.79-2.38 2.98-.19.4-.4.99-.79.59-.4-.4-.4-.79-.19-1.19 0-.19.19-.4.4-.4.79-.99 1.19-1.98 1.38-3.17-1.38.6-2.38 1.98-3.37 4.96-.6-.6-.4-1.19-.79-1.98-1 .99-1.59 2.38-1.59 3.97 0 1.59.4 2.97 1.38 4.16-1.19-.59-2.18-1.19-3.17-1.98.2.6.6 1 1 1.59 1.59 1.59 2.38 4.17 1.78 6.35-.4 1.98-1.38 3.97-2.78 5.36-.99 1.19-1.78 2.38-2.78 3.76-.59.79-.79 1.79-.4 2.78.4 1 .4 1.78.4 2.78.2 1.78 0 3.76-.4 5.55 0 .4 0 .79.2 1.19.4 1.19 1 2.38 1.78 3.37.6.79.6 1-.19 1.59-1.19.79-1.19 1.39-.2 2.38.4.4.79.6 1.19 1 .6.59.79.79.4 1.38-.79 1-1.38 1.98-1.38 3.17-.4.2-1 0-1.39-.19-1.78-.79-3.57-1.79-5.35-2.78-1.38-1-2.78-1.98-3.97-2.98-.2-.19-.6-.59-.6-.79.79 0 1.39.2 2.19.4 1.38.6 3.17-.19 3.76-1.59.2-.4.2-.59.2-.99 0-1.79 0-3.38-.4-4.96-.4-2.18-.79-4.36-1-6.54-.19-2.38.4-4.56 1.59-6.54 1-1.98 1.98-3.77 2.98-5.55.59-1.19.99-2.78 1.19-4.17 0-2.18-.79-4.36-2.38-6.14l-.4-.4c-1.19-1-1.19-1-.2-2.19 1.39-2.18 3.17-3.97 5.16-5.55 1.59-1.19 3.57-1.78 5.55-1.78 2.19 0 4.17.59 6.15 1.78 1.38.6 2.38 1.59 3.37 2.58-1.38.79-2.78 1.78-4.16 2.78 0-.79.79-1.39.79-1.98.19 0 .4-.2.4-.4s-.2 0-.4 0l-.4-1.19zm1.59 20.03c-1.39 0-2.78-.4-3.97-1.19-1.19-.79-1.98-2.19-1.98-3.77.19 0 .4 0 .4.2 1.59 1.78 3.37 3.17 5.16 4.36.4 0 .4.19.4.4zm-8.33 83.1c3.37 1.38 6.54 3.37 9.32 5.95 1.19.99 1.98 2.18 2.78 3.57 1.59 3.17 1.59 6.94-.4 9.92-1.59 2.57-3.57 4.95-5.95 6.94-1.78 1.39-3.57 2.58-5.35 3.77-.79.59-1.59.99-2.58 1.19 0-.4.2-.79.4-1 1.98-3.57 3.57-7.33 4.36-11.3 1.39-4.96 1-10.12-.59-14.88-.4-1.59-1.19-2.78-1.98-4.16zm-13.49 13.09c2.38 1.98 4.36 4.36 5.95 7.14 1.39 2.18 1.39 5.16 0 7.33-1.19 1.59-2.97 2.78-4.76 3.57-2.18.79-4.56 1.39-6.74 1.79h-1.98c0-.4.4-.6.6-.79 1.78-.79 3.57-1.98 4.95-3.38 3.57-2.97 4.96-7.73 3.57-11.9-.4-1.38-.99-2.78-1.59-3.76z" style="fill:#91643d;fill-rule:nonzero"></path> <path d="M442.08 246.15c.2 3.97-.4 8.13-1.59 11.9-.59 1.98-1.78 3.76-3.37 5.35-1.59 1.59-3.77 2.38-6.15 2.58-4.82.4-10.73-2.14-14.67-4.76-1.59-1-2.98-2.19-4.17-3.38-2.18-2.38-4.95-4.16-7.93-5.35a69.665 69.665 0 0 0-12.69-2.98c-6.07-.67-9.02-1.38-12.89-6.54-1.39-2.19-1.79-4.76-1-7.14.6-1.98 1.59-3.76 2.78-5.35 1.98-2.58 4.36-4.96 6.74-7.14 3.38-2.78 7.14-5.36 10.91-7.54 2.97-1.59 5.95-2.78 9.12-3.77 2.57-.79 5.16-1.38 7.93-1.98 3.17-.59 6.54-.4 9.71.4 3.57 1 6.54 2.98 8.92 5.76 1.39 1.98 2.58 4.16 3.38 6.54 1.98 5.55 3.37 11.11 3.97 17.06.79 2.38.99 4.36.99 6.35zm24.99-33.91a15 15 0 0 1 4.17.59c3.97.79 6.54 4.76 5.75 8.73-.4 2.38-.99 4.76-1.78 6.95-1 2.78-2.58 5.16-4.76 7.14-1.98 1.98-4.17 3.57-6.35 5.15-3.57 2.38-7.74 3.58-12.1 3.58-1.19 0-2.57-.4-3.76-1-2.78-1.38-4.36-4.16-4.36-7.14-.2-2.97.59-6.14 1.98-8.73 1.98-3.76 4.56-7.14 7.93-9.71 2.57-2.38 5.75-3.97 9.12-4.76 1.19-.6 2.78-.79 4.16-.79zm-29.35-31.74c-.79 2.78-1.98 5.35-3.57 7.73-1.78 2.78-4.16 5.16-7.14 6.74-2.57 1.59-5.95 1.59-8.72 0-1.39-.99-2.58-2.18-3.38-3.57-1.38-2.38-2.38-4.95-2.57-7.73-.79-6.55.39-13.29 3.57-19.04 1.98-3.77 5.15-6.74 8.92-8.33 1.98-1 3.97-1.19 6.14-.79 8.73 1.74 9.61 17.83 6.74 24.99zm32.33 10.31c-.79 1.98-1.98 3.97-3.17 5.55a39.153 39.153 0 0 1-9.33 8.73c-2.18 1.19-4.36 2.18-6.74 2.78-1.59.4-3.17.4-4.76.19-2.78-.4-5.16-2.57-6.14-5.35-1-3.17-1.19-6.55-.2-9.72 1.39-4.95 3.77-9.32 7.14-13.09 2.38-2.78 5.55-5.16 8.93-6.54 13.03-6.08 19.12 4.55 14.28 17.45zm-66.25 11.9c-1.19 2.38-2.78 4.36-4.76 6.14a9.907 9.907 0 0 1-5.55 2.38c-1.59 0-3.37-.4-4.76-1.19-1.78-1.19-3.37-2.57-4.36-4.56-14.37-23.35 15.02-53.5 21.97-25.36 1.72 6.99 1.09 15.9-2.53 22.59z" style="fill:#36753a;fill-rule:nonzero"></path> <path d="M142.21 103.35c5.35-1.59 10.9-2.58 16.46-2.98 4.56-.4 9.12-.4 13.68 0 1.19 0 1.19 0 1.19-.99.2-4.36 1.19-8.93 2.38-13.09 2.19-6.35 5.76-12.3 10.52-16.86 1.38-1.19 2.78-2.38 4.16-3.37 3.97-2.98 8.33-5.16 12.9-6.74.99-.2 1.59-1 1.98-1.78 1.98-5.16 5.16-9.52 9.52-12.69 3.37-2.58 7.33-4.57 11.3-5.76 3.97-1.19 7.93-1.78 12.09-1.98 5.36-.4 10.71.2 15.87 1.79.4.19.79.19 1.19 0l2.38-.4c4.17-.6 8.14-.6 12.3-.4 3.38.19 6.35 1.59 8.33 4.16.4.6 1.19.79 1.79.79.99 0 1.98-.19 2.97-.19 4.17 0 8.14.79 11.9 2.18.79.2 1.59.59 2.38.59 11.8 1.48 30.14 7.39 29.55 22.21v1.39c.6-.2 1.19-.4 1.79-.79.99-.6 1.98-.79 3.17-.79 2.38-.4 4.56 1.19 4.95 3.37v.2c.2.79.2 1.78 0 2.58-.19 1.78-.59 3.37-1.19 5.15-.79 2.38-1.78 4.76-2.38 7.34-.79 3.97-1.59 7.93-1.98 11.9-.79 4.76-.99 9.71-.99 14.48 0 1.79.4 3.77.79 5.55 1.38 3.97 2.38 7.93 3.37 12.1 1.79 7.14 3.17 14.28 4.17 21.42.19 1.78.19 3.57 0 5.55-1.46 10.14-.19 25.27.4 35.69.4 6.95 1.19 13.88 2.18 20.63.6 5.16 1.78 10.31 3.17 15.47.4 1.59.99 2.98 1.78 4.36 1.98 2.98 3.97 5.95 5.76 8.93 1.78 2.97 3.76 6.14 5.55 9.51 2.78 5.16 5.35 10.52 7.73 15.87 2.38 5.36 4.96 10.71 7.34 16.07l9.92 21.42c.19.4.4.79.79.99.99.79 1.78 1.79 2.78 2.78 4.76 5.16 6.74 12.3 5.35 19.04-.19 1.98-.59 3.97-.79 6.14-.19 1.39 0 2.98.6 4.36.59 1.19.99 2.58 1.19 3.97.79 4.17 1.38 8.33 1.78 12.69 0 1.19.79 2.19 1.98 2.19l1 .19c2.38.79 4.76 1.39 7.14 2.19.59.19 1.19.59 1.78.59.4.4 1 .6 1.59.6.2.19.6.4 1 .4 3.97 1.19 7.54 2.78 11.3 4.16 4.76 1.79 9.32 3.97 13.88 5.95 1.59.79 2.97 1.39 4.36 2.19.4.19.79.4.99.59.6.4.6 1.19.4 1.79-.4.59-.99.79-1.59.59-.4-.19-.99-.19-1.38-.4-1.59-.59-3.17-1.19-4.57-1.78-.99-.4-1.98-.6-3.17-.6-9.32-.79-18.64-1.38-27.76-1.98-12.9-.99-25.78-1.38-38.68-1.78-12.89-.4-26.38-.79-39.47-.79-7.93 0-15.87-.2-23.6 0-15.07 0-30.15.19-45.42.79-6.35.19-12.9.4-19.44.79-6.95.19-13.68.59-20.63.99-4.56.2-9.12.6-13.68.79l-18.45 1.19c-2.78.2-5.35.4-8.13.6l-10.52.99c-3.57.4-7.14.6-10.9 1-4.95.4-9.92.79-14.87 1.38-3.77.6-7.74.79-11.5 1.19-4.96.6-9.92 1-14.68 1.59-5.55.79-11.11 1.39-16.86 1.98l-11.5 1.59c-4.95.6-9.91 1.19-14.67 1.98-6.55 1-12.9 1.79-19.44 2.98-5.76.99-11.5 1.78-17.26 2.97-5.16 1-10.51 1.79-15.87 2.78-4.56 1-9.32 1.79-13.88 2.58-.79.19-1 0-1.19-.6-.2-.59 0-.99-.6-1.38v-.6c4.16-1.38 8.33-2.78 12.49-3.97 4.76-1.59 9.52-2.97 14.28-4.36 3.17-.99 6.55-1.78 9.92-2.97 3.38-1.19 6.74-1.79 9.92-2.78 3.77-1.19 7.54-1.98 11.31-3.17 3.37-1 6.94-1.79 10.31-2.78 3.97-1.19 7.93-1.98 11.9-2.98 3.97-.99 7.93-1.78 11.9-2.78 4.36-1.19 8.73-1.98 12.9-2.97 4.16-1 8.73-1.79 13.09-2.78 4.56-1.19 9.32-1.79 14.08-2.98 3.17-.79 6.54-1.19 9.71-1.98.79-.19 1-.4.79-1.19-.19-4.95.4-9.92 1.79-14.67 2.7-9.71 8.03-18.38 14.28-26.18.79-1 1.38-1.79 2.38-2.58.59-.4.79-1.38.4-1.98-.4-.79-.4-1.59-.79-2.18-.4-.6-.2-1 .4-1.19.4-.2.59-.4.79-.4-.6-.79-1-1.39-1.59-1.98-.79-.79-.79-1.98 0-2.78.19-.2.4-.4.59-.4 2.98-1.98 5.76-4.17 8.14-6.55 2.18-1.98 3.97-4.16 5.16-6.94.19-.2.19-.4.19-.79.2-1 .2-1.19-.79-1.79-.79-.4-1.59-.79-2.38-.99-3.97-1.79-5.95-6.35-4.16-10.31 1.59-3.37 2.78-6.94 3.57-10.51.79-3.17.99-6.55.19-9.92-.79-3.38-3.17-6.15-6.14-7.34-2.78-1.38-5.95-1.98-9.12-2.18-4.57-.2-9.12 0-13.68.79-.79.19-1.59 0-2.19-.6-1.98-1.59-3.97-3.17-5.95-4.95-1.19-1.19-2.57-2.38-3.76-3.57-4.17-4.17-7.74-8.53-11.11-13.29-6.95-10.11-11.9-21.42-14.28-33.52-1.39-6.55-1.98-13.09-1.59-19.83.19-2.57-.2-5.35-.79-7.93-1.39-5.95-1.39-12.09.19-18.05 1-4.17 2.98-7.93 5.76-11.11.4-.4.79-1 1.19-1.19 1.38-1 2.38-2.58 2.78-4.17 1.78-4.95 4.76-9.32 8.52-13.09 5.25-5.24 14.53-9.52 21.62-11.7zm116.22 135.07c-.79.59-1.79 1.19-2.58 1.98-3.17 2.57-6.54 4.75-10.31 6.54-2.97 1.38-5.95 2.38-9.12 3.17-3.63-.45-6.4 2.62-9.52 4.36-.59.19-.99.59-1.38 1.19-1.59.79-3.17 1.59-4.56 2.57-1 .4-1.39 1.39-1 2.38 0 .2 0 .4.2.6.59 2.18 1.38 4.36 2.57 6.35 1.79 3.37 3.97 6.54 5.95 9.71.4.79.79 1.59 1.19 2.38.4.79.2 1-.79 1-.19-.2-.4-.2-.59-.2l-.79-.19c-.2-.4-.6-.6-1-.79-.59-.2-1.19-.6-1.59-1-1.78-1.59-3.37-3.57-4.16-5.95-.6-1.78-1-3.76-1.39-5.75-.19-2.58-.19-5.36 0-7.93-.99.4-2.18.59-3.17.59h-3.37c-3.97-.19-7.93-.99-11.71-1.98-3.17-.99-6.35-1.78-9.51-2.57-.2-.2-.4-.2-.6-.4-3.17-1-6.14-1.98-9.12-3.38-2.38-.99-4.56-1.98-6.94-3.17a6.28 6.28 0 0 1-2.78-2.78c-.2-.2-.2-.4-.4-.6-1.39-1.78-2.98-3.57-4.76-5.16-1.65-1.64-3.56.36-3.97 1.98-.79 1.79-.79 1.98 1.19 2.38h.19c3.76.79 7.14 3.17 9.32 6.54.6 1.19 1.19 2.19 1.59 3.38.79 3.57.79 7.33 0 11.11-.79 3.97-2.18 7.73-3.76 11.3-1.39 2.38-.4 5.55 1.98 6.74.19.2.59.2.79.4.99.4 1.98 1 2.97 1.59 1 .4 1.59 1.39 1.79 2.58.19 1.38-.2 2.78-.79 3.97-1.59 3.17-3.97 5.95-6.74 8.33a64.086 64.086 0 0 1-5.76 4.56c-1.59 1-1.38.79-.19 1.98.79.79 1.59 1.79 2.57 2.58-.4.4-.99.79-1.59.99-1.19.6-1.19.6-.79 1.79 0 .19.2.4.2.4.79.99.59 2.18-.4 2.97 0 0-.2.2-.4.2-.2.19-.4.4-.6.59-7.5 8.34-14.26 19.76-16.65 30.75-.79 3.37-1 6.74-1 10.11 0 .99 0 .99 1.19.79 2.19-.4 4.17-.79 6.35-1.19 4.96-.79 9.92-1.79 14.88-2.58 1.98-.4 3.76-.59 5.75-.99 4.16-.6 8.52-1.19 12.69-1.98 2.38-.4 4.76-.6 7.14-1 5.35-.79 10.71-1.19 16.06-1.98 3.57-.59 7.34-.79 10.91-1.19 6.54-.79 13.09-1.19 19.63-1.78 5.75-.6 11.5-.79 17.25-1 4.96-.19 9.92-.4 14.88-.4 9.92-.19 20.03-.19 29.95 0 4.56.2 8.92.2 13.49.6 4.95.19 9.92.59 14.87 1.19 4.17.4 8.14.79 12.3 1.19 5.95.59 11.9 1.59 17.85 2.57 5.36.79 10.71 1.98 16.07 2.98 2.77.6 5.75 1.19 8.52 1.98 1.98.6 4.16.99 6.14 1.59 0-.2.2-.2.2-.4-.4-3.37-.79-6.94-1.39-10.31-.19-1.78-.59-3.37-1.19-4.95-.99-1.98-1.38-4.36-.99-6.55.19-2.18.59-4.16.79-6.35.4-2.38.4-4.56 0-6.94-.79-4.36-2.98-8.14-6.15-11.11-1.38-1.19-2.38-2.78-3.17-4.36-.19-.4-.19-.6-.4-1-3.76-7.73-7.33-15.67-10.9-23.4-2.57-5.55-5.16-11.1-7.73-16.65-4.17-8.93-8.93-17.45-14.48-25.59-1.38-1.98-2.57-3.97-3.57-6.14-.99-2.98-1.78-5.76-2.57-8.93-1.19-6.35-2.19-12.89-2.78-19.24-.79-6.74-1.19-13.68-1.59-20.43-.2-4.57-.4-9.12-.4-13.69-.29-5.74.79-10.48.79-15.67-.2-2.98-.6-5.76-1.19-8.73-1.39-8.14-3.38-16.06-5.76-24-.99-2.77-1.59-5.75-1.78-8.72 0-4.57.4-9.12.79-13.69-1 4.57-1.19 9.12-1 13.69 0 1.78-.19 3.57-.4 5.15-.19 3.17-.59 6.15-1.19 9.12-.19.4-.19 1 0 1.39 1.19 3.97 2.19 8.13 3.17 12.09 1.79 7.74 2.98 15.67 3.97 23.61.79 7.33 1.39 14.68 1.39 22.01 0 6.74 0 13.29.79 20.03.4 3.77.79 7.74 1.19 11.5.4 3.77.99 7.34 1.59 10.91.4 2.57.79 5.16 1.59 7.73 1.19 3.97 2.97 7.74 4.95 11.5 1 1.98 1.98 3.97 3.17 5.76.79 1.19 1.79 2.57 2.38 3.97 2.98 5.35 6.14 10.9 9.12 16.46 2.18 3.97 4.36 7.93 6.14 11.9.2.4.6.99 1 1.19.79.6 1.59 1.59 1.98 2.58 1.38 2.77 2.38 5.75 3.37 8.92 1.19 3.76 2.19 7.73 3.57 11.5.2.59.6 1.19 1 1.59 2.38 2.38 4.56 4.95 6.14 7.73 1 1.59 1.59 3.17 2.58 4.76h-.6c-.99-1.78-2.18-3.38-3.57-4.76-1.78-1.78-3.57-3.37-5.35-5.16-1-.99-1.98-1.98-2.98-3.17-.79-.79-1.38-1.98-1.59-3.17-.4-1.59-.79-3.17-1.59-4.76-1.38-3.17-3.17-6.14-4.76-9.32a37.86 37.86 0 0 1-2.38-5.95c-.19-1-.19-1.98 0-2.98.2-.59 0-1.19-.19-1.59-2.38-2.97-4.36-6.14-6.35-9.32-1.98-3.17-4.17-6.74-5.95-10.12-3.38-6.35-6.35-12.89-8.93-19.63-3.76-10.11-6.54-20.43-8.13-30.94-1-6.74-1.59-13.68-1.79-20.43 0-2.98 0-5.95.2-8.93.2-2.57.4-5.16.79-7.73.19-.79.19-1.59.19-2.38-.19-4.96-.59-10.11-1.59-15.07-.99-6.14-2.57-12.09-4.56-17.85 0-.4-.19-.59-.4-.99v4.36c0 3.57 0 7.33-.19 10.9 0 2.19-.4 4.17-.79 6.15-.2.79-.4 1.38-1 1.98.2-.79.2-1.2.2-1.79.59-3.76.99-7.54.79-11.3 0-3.97-.4-7.74-1-11.5l-1.59-9.72 1-4.16c.99-5.16 1.59-10.52 1.98-15.87.19-2.78.4-5.36.59-8.14l.6-11.9c.19-1.98.19-4.16.4-6.14.19-.59-.4-1.19-1-1.38-.79 0-.79.59-.99.99-.4 1.59-.6 3.17-.79 4.76 0 .79-.6 1.78-1.39 2.18-.19.2-.59.4-.79.2-.19-.2-.19-.4-.19-.79v-.99c-.4-1.98-1-3.97-1.98-5.76-.6-.79-.4-1.98.19-2.57.6-.2 1.19-.4 1.59-.79 1.39-1.19 3.57-1 4.96.19.19.2.4.4.59.4 1.19 1.39 1.79 2.98 1.98 4.57.2-.2.4-.2.4-.2 1.19-2.78 2.19-5.55 2.58-8.73.19-1.19 0-2.38-.4-3.57-.4-.79-.4-.79-1.39-.6-.19 0-.59.2-.79.2-1.19.79-2.57 1.19-3.97 1.98-.59.4-1.38.4-1.98-.2 0-.19-.19-.19-.19-.39-.2-.6-.4-1-.6-1.59-1.19-3.97-2.78-7.73-5.16-11.3-2.19-3.28-7.33-8.23-11.7-9.33-1.19-.19-2.38-.59-3.57-.79-1.59-.4-2.98-.4-4.57-.4-.99 0-1.59.4-1.78 1.38-.2.4-.2 1-.4 1.39a26.227 26.227 0 0 0-1.19 11.1c.19 2.19 1.98 3.77 4.16 3.57 3.77.2 7.54-.39 11.11-1.38 1.39-.4 2.58-.6 3.97-.79.79.4 1.79 1 2.58 1.59.79.6 1.19 1.19.79 1.98-.6 1.98-1 4.17-.79 6.35 0 1.79 1.19 3.38 2.78 3.77.59.19.99.4.99 1.19-.59.19-1.19.59-1.78.99-.4.2-.79.4-1.19 0-.79-.79-1.59-1.19-2.38-1.98-.4-.4-.79-.99-.79-1.59-.2-2.57 0-5.16.79-7.54.59-1.38.59-1.38-.79-2.18l-.4-.2c-.4-.19-.79-.19-1.19 0-1.98 1-4.17 1.59-6.35 2.19-3.92.9-9.65 2.27-13.49.99-1.79-.59-1.98-1.19-1.59-2.78 1.38-3.57 1.78-7.33 1.38-11.11-.19-.99-.19-1.98-.99-2.78 0-.59-.2-1.19-.6-1.78-1.38-2.19-3.57-3.77-5.95-4.36-1.59-.4-3.17-.6-4.76-.6-2.38 0-2.57.2-2.38 2.38v1c0 .79.6 1.59 1.19 1.98 1.39.99 1.98 2.57 1.59 4.16-3.17-3.97-6.54-7.93-10.31-11.3 1.19 0 1.79.99 2.98.99 0-.59-.4-.99-.79-1.38-1.19-1-2.38-1.79-3.76-2.38-2.98-1.28-9.16-1.28-12.69-.4.19.4.4.79.79 1.19.59.79 1.19 1.59 1.98 2.38 1.38 1.98 2.97 3.76 4.76 5.55 0 .79.59 1.19.99 1.78.4.6.79 1 .79 1.59l-.4-.19c-1.38-1-2.57-2.19-3.76-3.57-2.58-2.38-5.36-4.36-8.53-5.76-12.12-5.65-22.56-6.45-34.5 1.19-4.17 2.58-7.34 6.35-9.52 10.91-.2.59-.4.99-.6 1.59-.19.19 0 .59.2.79h.19c1 .59 1.98.79 2.98.99h4.76c.4 0 .79-.19.99-.4 2.38-1.59 4.76-2.97 7.34-4.16 1.38-.6 2.97-1 4.36-1.59 3.57-1.39 7.33-1.98 11.3-1.98 1.78 0 3.37 0 5.16.4.99 0 1.98.4 2.78.99-1.98 0-3.97.4-6.15.6-3.57.4-7.13.59-10.71 1.38-.99.2-1.78.4-2.77.79-.4.2-.79.6-.4 1 .4.4 0 .79-.4.99-.4.2-.79.2-1 .6h-.2c-.99 0-1.98.4-2.57 1.19h-.2c-.19 0-.19 0-.4.19-1.19.6-2.37 1.19-3.37 1.98-3.37 2.38-6.14 5.36-8.33 8.73-.4.4-.59 1-.59 1.59-.6.2-.79 1-1.2 1.39-.4.4-.4.99-.79 1.19-.2-.6.39-1 0-1.39-1-.99-1-2.38-.2-3.37.59-1.39 1.38-2.78 2.18-3.97.4-.6.79-1.39 1.19-1.98.2-.4.2-.79-.4-1-1.19-.4-2.18-.99-2.97-1.98-.4-.4-1-.59-1.59-.19-2.98.99-5.76 2.18-8.92 3.17-.4.19-.79.19-1 .79-.4.19-.79.19-1.19.4-2.97 1.78-5.95 3.97-8.33 6.54-3.76 3.76-6.74 8.33-8.52 13.49-.79 1.78-1.39 3.97-1.59 5.95-.2 0-.2.19-.4.4-.4 2.18-.79 4.36-1 6.74 0 1.38-.19 2.78-.19 4.16 0 .6-.4.79-1 .79h-.59c-2.98-.4-5.76-.59-8.73-.4-1.79 0-3.77-.19-5.55 0-3.17.4-6.15.6-9.33 1.19-10.35 1.73-20.38 6.04-27.17 14.28-2.98 3.17-5.36 6.74-6.94 10.71-.4.6-.4 1.19-.4 1.79.79-.2 1.59-.6 2.18-1 1.38-.4 2.58-.79 3.97-1.19 4.36-1.19 8.92-.99 13.09.6 0 .19-.2.19-.4.19-1.59.2-3.17.4-4.76.79-3.57.6-7.14 1.59-10.51 2.98-3.97 1.59-7.54 3.97-10.31 7.14-.4.4-.6.79-.79 1.38-.79 1.79-1.39 3.77-1.79 5.55-.99 1.19-.99 1.98-1.19 2.98-.19.4.2.79.6.99h.19c1 .2 1.79.4 2.78.79.4.2.6 0 .6-.4.19-1.19.99-1.59 1.98-1.78.99-.2 1.19-.2 1.59.59.4.79.79 1.59 1.19 2.38.2 0 .4 0 .6-.19 1.98-1 4.16-1.39 6.54-1.19 2.18.39 4.36.99 6.54 1.78.6.2 1 .4 1.59.79.4.19.79.79.6 1.38-.2 1-.79 1.79-1.59 2.38-.79.4-1.39 1.19-2.58 1-.99-.2-1.78.4-1.98 1.19-.19.79-.4 1.78-.19 2.78.4 1.59.79 3.17 1.38 4.76.4.99.4 1.19-.59 1.59-.79.59-1.79 1.19-2.78 1.59-1.39.59-2.58 1.59-4.17 1.19.4 1.78.79 3.37 1.39 4.95 1.19 4.36 2.57 8.73 4.36 13.09 1.78 4.36 3.97 8.73 6.54 12.9 2.38 3.76 5.16 7.14 8.33 10.11 1.19 1 2.58 1.98 3.97 2.78 3.38 1.59 6.74 3.57 9.72 5.95 2.97 2.19 5.95 4.57 8.73 7.14 3.17 2.78 6.14 5.76 9.12 8.73.19.2.4.6.59 1 1 1.59 1.98 3.17 3.38 4.36 2.78 2.57 5.95 4.76 9.32 6.35 4.36 1.78 8.73 3.17 13.49 3.97 1.78.4 3.37.59 5.16.4.4 0 .99 0 1.38.19.79.4 1.59.79 2.38 1 1.98.79 3.97 1.38 5.95 1.59 3.57.19 7.14-.4 10.52-1.79.4-.19.79-.4 1.19-.59 1.38-1 2.97-1.98 4.56-2.38 3.53-.88 11.34-9.42 13.69-12.3 4.36-5.36 8.33-11.11 11.7-17.26 1-1.78 2.18-3.76 2.98-5.75.19-.2.4-.6.79-.6.4 0 .4.4.4.79 0 1.39 0 2.98-.4 4.36-.99 5.16-3.17 9.72-6.34 13.88-.79 1-1.59 1.98-2.38 2.98l-.2.19c.2.2.2 0 .2 0 .19 0 .59-.19.79-.4 1.59-.99 2.98-1.98 4.57-2.97 2.78-1.79 5.55-3.38 8.33-4.76 1.59-.79 2.97-1.39 4.76-1.79.59-.19 1.19-.19 1.59 0a86.776 86.776 0 0 1-5.76 6.35c-.99.79-1.98 1.79-2.78 2.78l-.79.6c-.19.19-.39.4-.79.59l-.6.6zm-124.55-3.57c2.57 2.57 5.16 4.95 7.93 7.14.79.79 1.78 1.19 2.97 1.19.79-.2 1.59-.2 2.38-.2 1.19 0 2.38-.59 3.17-1.38.4-.4.79-.6 1.19-1 2.78-1.98 6.35-2.78 9.72-1.98.79.2 1.59 1 2.38.4.57-.43.96-.83 1.19-1.21.96-1.51-.39-2.74-1.59-4.35-1.59-1.38-3.17-2.97-4.76-4.36-2.78-2.38-5.76-4.56-8.53-6.94-2.38-1.98-4.95-3.77-7.54-5.76-3.76-2.57-7.33-5.75-11.11-8.33-.59-.4-1.19-.99-1.59-1.38-1.78-2.19-3.17-4.76-4.36-7.34-1.78-4.16-3.37-8.33-4.76-12.69-2.38-7.33-4.56-14.87-6.54-22.41-.5-1.99-1-4.13-1.61-6.29-.31-1.05-.51-1.72-1.96-1.25-.6.19-.4.6-.4.99.4 1.39.79 2.78 1.19 3.97.19.79.4 1.79.4 2.78 0 .4 0 .79-.6 1-.59.19-.79-.2-.99-.6-.2-.4-.6-1.38-1-1.98-.59-1.38-1.19-2.97-1.98-4.36-.19-.4-.4-.79-.79-.99-.99-.5.45 5.29.6 5.75.59 1.59.79 3.17.59 4.96 0 .79-.19 1.59-.19 2.38-.2 6.54.19 13.09 1.59 19.63a81.34 81.34 0 0 0 5.35 16.66c2.19 4.76 4.57 9.33 7.54 13.69 3.5 4.67 8.18 10.35 12.1 14.28zM27.37 389.74c-.99.2-1.98.4-2.97 1 1.38-.2 2.77-.4 4.16-.79 1.98-.2 3.76-.79 5.55-1 2.97-.59 5.95-.99 8.92-1.38 2.98-.4 6.55-1.19 9.92-1.59 4.57-.79 9.12-1.39 13.69-1.98 3.57-.6 7.33-1.19 10.9-1.59 5.35-.79 10.9-1.59 16.26-2.19 3.97-.59 7.93-.99 11.9-1.38 3.17-.4 6.35-.6 9.52-1.19 2.18-.4 4.56-.4 6.74-.79l12.09-1.19c1.98-.2 3.97-.2 5.95-.6 3.97-.59 7.74-.79 11.71-1.19 3.57-.4 6.94-.6 10.51-.99 4.36-.4 8.52-.6 12.89-1.2 3.57-.4 7.14-.59 10.71-.79l16.66-1c4.76-.2 9.52-.4 14.28-.79 4.76-.4 9.12-.4 13.49-.79 4.36-.4 8.73-.4 13.09-.59l16.86-.6c3.57 0 7.14 0 10.52-.2 4.95-.19 10.11-.19 15.07-.19 15.87-.2 31.53-.2 47.4 0 8.52.19 17.06.19 25.39.59 5.16.2 10.51.2 15.67.6 4.16.2 8.52.4 12.69.6 4.16.19 8.33.39 12.69.79 4.76.4 9.52.6 14.28.79 3.17.2 6.35.4 9.52.79H426l-.59-.4c-3.97-1.78-7.93-3.17-11.9-4.76-5.95-2.18-11.9-3.97-17.85-5.75-3.57-1-7.34-1.98-10.91-2.98-4.95-1.19-9.92-2.18-14.87-3.17-4.17-.79-8.33-1.39-12.5-2.19-4.16-.79-8.92-1.38-13.29-1.78l-8.73-1c-2.57-.19-5.35-.59-7.93-.79-3.57-.19-6.94-.4-10.51-.59-4.96-.4-10.12-.6-15.07-.6-6.15-.19-12.1-.19-18.25-.19-6.94 0-13.88.19-20.82.4-5.76.19-11.31.59-17.06.99-3.97.2-7.74.6-11.71 1-3.96.4-7.33.59-10.9.99-2.97.2-6.14.6-9.12.79-4.56.6-9.12 1.19-13.68 1.78-6.15.79-12.1 1.59-18.25 2.38-5.36.79-10.71 1.59-16.06 2.58-5.96 1.19-11.9 1.78-17.66 3.17-5.16.99-10.31 1.78-15.27 2.97-4.57 1-9.12 1.79-13.88 2.78-4.76 1-9.72 1.98-14.48 3.17-3.76 1-7.54 1.59-11.3 2.58-4.16 1.19-8.33 1.98-12.49 2.97-3.57 1-7.34 1.79-10.91 2.78-3.57 1-7.54 1.79-11.3 2.98-3.38.99-6.95 1.78-10.31 2.78-3.38.99-6.95 1.78-10.31 2.97-3.37 1.19-7.33 1.59-10.71 2.98zm93.61-224.91c.2-1.19 0-2.18-.59-3.17-.79-1.78-1.98-3.17-3.77-4.16-.4-.19-.4 0-.4.2v1.19c.2 1.19.4 2.57.6 3.76.19 1.19.59 2.98.79 4.57.19.79.79 1.19 1.59 1.19.79 0 1.59-.79 1.59-1.39.19-.6.19-1.39.19-2.19z" class="fil6"></path> <path d="M131.3 172.96c-.59-.6-1.78-.6-2.18-1.59 1.19-1 2.57-1.79 3.76-2.78.79-.4 1-.79.4-1.79-.4-.59-.4-1.38-.4-1.98 0-1.38-.19-2.57-.79-3.76-.79-1.98-.19-3.97 1.39-5.36.99-.79 2.18-1.19 3.37-.79.4 0 .4.19.4.59-.19 1.98-.19 1.98 1.79 1.19h.19l.2.2c0 .59-.4 1.19-.4 1.78 0 .2.19.6.4.6.19 0 .4 0 .59-.2.79-1.39 2.58-1.78 3.97-2.58 2.78-1.38 4.57-4.36 4.57-7.33 0-.4-.2-.79.4-1l.19.01c0 .19.2.59.2.79 1.19 2.77 1.38 5.95.4 8.72-.2.6-.4 1.2-.4 1.98-.4.2-.6.6-.79 1-.79 2.18-2.38 4.16-4.36 5.35a24.584 24.584 0 0 1-7.34 4.17c-1.59.59-3.37 1.38-4.95 2.38-.2 0-.2 0-.4.19l-.2.2zm192.98 102.73c.6 1 1 1.59 1.19 2.19 2.98 5.35 5.55 10.9 7.74 16.66 1.78 4.36 3.17 9.12 3.76 13.88.4 1.59.4 3.38.2 4.96 0 .2 0 .4-.2.6-.19.19-.4.59-.79.19-.4-.4-.59-.59-.79-.99-1.59-3.17-2.97-6.35-3.97-9.72-2.78-7.93-5.16-16.06-7.33-24.39-.2-1-.2-2.19.19-3.38zm2.38-10.11c1.19 1.38 2.38 2.57 3.57 3.76 1.19 1.39 2.19 2.78 2.98 4.17.99 1.59 1.59 3.17 1.98 4.76 0 .4.19.59.19.99 0 .2 0 .4-.19.6-.2.19-.6 0-.79-.2-.4-.4-.6-.59-1-.99a75.358 75.358 0 0 1-6.35-10.91c-.59-.59-.59-1.38-.4-2.18zm3.17-8.14c2.78 3.77 5.36 7.54 7.74 11.5 1.78 2.78 3.17 5.76 3.97 8.93.19.79.19 1.59 0 2.38-.2.79-.6.79-1.19.4-.6-.6-1-1.19-1.39-1.98-1.38-2.78-2.57-5.55-3.97-8.33-1.78-3.97-3.37-7.93-5.35-11.9-.2-.2-.2-.4-.2-.79l.4-.2zm-5.35-62.27c.19 1.38.4 2.78.79 3.97 1.38 9.12 3.37 18.25 5.95 26.97.79 2.78 1.78 5.35 2.78 7.93 1.19 3.37 2.18 6.94 2.97 10.31.6 2.78 1 5.76.79 8.53 0 .99 0 1.98-.79 2.78-.4.4 0 .59.2.79 1.19 1.78 2.18 3.57 3.17 5.55.79 1.38 1.19 2.97 1.38 4.56 0 .6 0 1-.19 1.59-.6-.19-1-.79-1.19-1.38-2.38-4.96-4.96-9.52-7.54-14.28-.6-1.19-.6-1.19.19-2.58l1.39 1c.19.19.59.4.99.19.4-.19.2-.59.2-.99-.4-1.59-.79-3.38-1.19-4.96-1.79-7.14-3.77-14.28-5.55-21.42-1.59-6.54-3.17-13.09-4.36-19.83-.4-2.38-.6-4.57-.6-6.95-.19-.4 0-1.19.6-1.78zm-68.42-86.48c1.59.79 3.17 1.98 4.56 3.17 1.39 1 2.78 2.38 3.97 3.77.6.79 1.19 1.59 1.39 2.57.4 1 .79 1.98 1.38 2.78.6 1 1.19 2.19 1.39 3.17.19.4.19.6.19 1 1 3.17 2.58 4.16 5.95 4.36 3.38.19 6.74 1.38 9.33 3.76 2.38 2.38 4.16 5.16 5.55 8.14 1 2.18 1.59 4.56 1.79 6.94 0 .4.19.99-.2 1.38-.59 0-.59-.59-.79-.79-1.78-4.96-4.36-9.52-7.93-13.49-.4-.6-1-1-1.59-1.59-.2-.2-.6-.4-.79-.4-1.19 0-2.38-.2-3.77-.2-1.98 0-4.16-.4-6.14-.99-1-.4-1.98-1.2-2.19-2.38-.99-2.78-1.98-5.55-2.78-8.33-.19-.6-.4-1.19-.59-1.79 0-.4-.2-.59-.6-.79-1.38-.79-2.57-1.98-3.57-3.17-1.59-1.98-2.97-3.97-4.56-5.95v-1.19zm60.69-21.42c-.59-2.18-1.59-4.16-2.78-6.14-.4-.79-.99-1.78-1.78-2.58.79 0 1.59.2 2.18.79 1.19 1 1.98 2.38 2.78 3.77 1.79 3.76 2.98 7.73 3.77 11.7.59 2.98 1.19 5.95 1.59 8.93.19 1.98.4 3.97.59 5.95a5.23 5.23 0 0 1-.59-2.38c-.4-2.38-1-4.76-1.59-6.95l-.2-.19c-.4-2.19-.99-4.36-1.59-6.35-.4-1.59-1.19-3.17-1.59-4.76-.4-.79-.59-1.39-.79-1.79zm-57.51-10.7c.59 0 1.19.4 1.59.79 2.78 2.18 5.35 4.56 7.54 7.33 1.38 1.59 2.78 3.17 3.97 4.96.19.4.4.79.59 1.19 1.19 2.97 2.58 5.75 4.57 8.13 2.38 3.38 5.16 6.54 7.93 9.71.99 1 1.98 2.19 2.57 3.58.2.59 1 1.38.2 1.98-.79.59-1.19-.2-1.79-.79-1.19-1-2.38-2.19-3.17-3.38a91.768 91.768 0 0 1-5.16-6.94c-1.59-2.58-3.17-5.16-4.56-7.74-.79-1.38-1.59-2.78-2.58-4.16-2.78-3.57-5.55-6.95-8.73-10.31-1.19-1.19-2.18-2.19-3.37-3.38-.2-.19-.4-.4-.2-.59.2-.2.2-.4.6-.4zm.19 75.17c1.19-.79 1.98-1.98 3.17-2.78 1.39-1 3.17-1.59 4.76-1.98.79-.2 1.59-.2 2.38 0 1.59.4 2.98 1.19 4.36 1.98 1.98 1.59 3.77 3.17 5.36 4.95 2.97 3.57 4.36 8.33 3.76 13.09 0 .4-.19 1-.19 1.39v.19c-.2-2.38-.6-4.56-1.2-6.94-.79-3.17-2.77-5.76-5.35-7.54-.6-.6-1.38-1.19-1.98-1.79-.79-.79-1.98-1.19-2.98-1.59.79 1.19 1.59 2.38 2.19 3.57 0 .2.19.2.4.4.19 1.59.99 3.17 1.38 4.76.79 3.77.79 7.54.2 11.31-.6 4.56-1.98 9.12-3.77 13.68 0 .2-.19.6-.19.79l-.6.4c0-1 .2-1.98.4-2.98.2-1.38.4-2.57.4-3.97.4-3.17.4-6.54.4-9.71-.19-3.76-.59-7.54-1.59-11.11-.59-2.18-1.59-4.16-2.97-5.95l-.2-.4c-.79-.99-2.18-1.38-3.37-.99-.79.4-1.98.4-2.58 1.19h-.39c-.2-.2-.4 0-.6.19-.19 0-.4 0-.59.2-.2 0-.2.19-.4 0-.2-.2-.2-.4-.2-.4zm15.28-6.95c-.79 0-1.39-.19-2.19-.4-5.35-1.59-11.11-.59-15.67 2.78a30.885 30.885 0 0 1-8.53 4.16c-.59.2-1.19.2-1.78.4-1.19.2-2.38-.19-3.38-.99-1.19-.79-2.38-1.39-3.57-1.98-2.78-1.59-4.95-3.97-6.54-6.74-.2-.4-.4-.6-.4-1-1.59-4.56-3.97-8.92-6.94-12.89-1.59-1.98-2.98-3.97-4.57-5.95-.79-.79-1.38-2.18-1.19-3.37 0-.6-.19-1.39-.79-1.59-1.98-1.19-3.37-2.98-5.16-4.17-.19 0-.19-.19-.4-.4-.79-1.19-1.98-1.98-3.17-2.38-1.19-.4-2.18-1.38-2.78-2.38-1.98-3.97-6.14-6.35-10.51-6.14-2.38-.2-4.76.4-7.14 1.38-1 .6-1.98 1.19-2.98 1.98.4.2 1 .2 1.59.2 5.36.19 10.52 1.59 15.07 3.97 2.78 1.38 5.36 3.17 7.54 5.35 1.59 1.59 3.17 3.17 4.36 5.16.2.2.4.4.4.6 1.19 4.36 3.17 8.52 5.95 12.3 2.19 2.97 4.57 5.75 7.14 8.52 2.58 2.78 5.36 5.36 8.14 7.93.4.19.59.59.79.79-.2.19-.4.19-.6 0-3.97-1.79-7.33-4.57-10.31-7.74a132.09 132.09 0 0 1-6.94-8.13c-.4-.6-.6-1.19-1-1.98-1.98-4.36-4.56-8.52-7.54-12.3-2.57-3.37-5.75-6.35-9.52-8.52-3.37-2.19-7.54-3.17-11.5-3.17H190c-1.59.59-3.17.19-4.56-.79-.4-.2-.6 0-1 0-.99.4-1.38.19-1.38-.79-.2-1.39 0-2.98.59-4.17.2-.19.2-.4.6-.59 2.18-1.39 4.56-2.58 7.14-3.38 1.78-.79 3.76-1.38 5.55-1.59 1.59-.19 2.98-.19 4.57 0 1.59.2 2.78 1 3.76 2.19.2.19.4.59.79.4.4-.2.2-.4.2-.79-.2-1.79-.2-3.77-.4-5.55 0-1 .19-1.79.19-2.58v-.19c.2-.6.4-1.19 1-1.19.59 0 .4.79.4 1.38v3.97c0 .4-.2.79.4.79-.2 1.79 0 3.57.79 5.36 1.19 3.76 3.17 7.33 5.75 10.31.4.4.6.59 1 .99 0 .2.19.2.4.2 0 .4.4.59.59.79 1.19 1.19 2.58 2.18 3.97 2.97 1.79 1 3.57 1.98 5.36 2.78.4.2.99.4 1.38.2.2-1.19.6-2.38 1.39-3.17.59-.6.4-.79-.4-1.39-.4-.19-.79-.59-1.19-.99-1-1-.79-1.59.19-2.38.79-.6 1-.79.2-1.59-.79-1-1.39-2.19-1.79-3.38-.19-.4-.19-.79-.19-1.19.4-1.78.59-3.76.4-5.55 0-.99-.2-1.98-.4-2.78-.4-.99-.2-1.98.4-2.78.79-1.38 1.78-2.57 2.78-3.76 1.38-1.39 2.38-3.38 2.78-5.36.59-2.38-.2-4.76-1.79-6.35-.4-.4-.79-.99-.99-1.59.99.79 1.98 1.39 3.17 1.98-.79-1.19-1.39-2.78-1.39-4.16.2-1.39.79-2.78 1.59-3.97.4.59.4 1.38.79 1.98 1-2.78 1.79-4.17 3.38-4.96-.2 1.19-.79 2.19-1.39 3.17-.19.2-.19.2-.4.4-.19.4-.19 1 .2 1.19.4.2.59-.4.79-.59.59-1.19 1.38-1.98 2.38-2.98.59-.4 1.38-.59 1.98-.4.59.2.19.79.19 1.19v.2c-.19 0-.4.19-.4.19l-.19.2H239.77c-.2.79-1 1.19-.79 1.98 0 0-.2 0-.2.2h.2c1.38-1 2.78-1.79 4.16-2.78.79-.2 1.59-.2 2.38 0-.79.79-1.59 1.59-2.57 2.18-1.19 1-2.38 1.79-3.77 2.58-2.38 1.59-3.57 4.56-2.78 7.33.2.79.2 1.59-.59 1.98-.4.2-.6.6-.2 1 0 1.59.79 2.97 1.98 3.76 1.19.79 2.58 1.19 3.97 1.19l1.59.4c.6.79 1.59 1 2.38 1.79 2.38 2.38 3.97 5.35 4.57 8.52.4 1.19.4 2.57 1.59 3.57.19.2.59.6.59.99 1.79 2.98 2.98 6.15 3.97 9.52 0 .4.4.79 0 1-.4.19-.59-.4-.79-.6-.99-1.78-1.98-3.57-2.78-5.55-.19-.79-.59-1.38-.99-1.98.19 2.19.79 4.36 1.78 6.55 1 2.18 2.78 3.97 4.96 4.95-.79.2-1.79 0-2.58-.4-1.59-.79-3.17-1.59-4.56-2.78-1-.79-2.19-1.19-3.38-.59-.59.19-.79.4-.4.99l.6.6c.19 0 .4.4.4.59-.2.79-1 1.59-1.79 1.39-.19 0-.19 0-.4-.2-.79-.4-1.78-.79-2.77-.99-.4.79.39 1.38 0 2.18-1.2-.4-2.19-.99-3.17-1.38-2.38-1-5.16-.79-7.14.79-.4.4-.6.59-.2 1.19.79 1.19 1.59 2.38 2.19 3.57 1.59 3.37 3.57 6.35 5.95 9.12 1.38 1.59 3.17 2.78 5.15 3.37 2.19.6 4.57.6 6.74.2 2.58-.4 4.96-1.19 7.34-2.38.59-.4 1.38-.6 2.18-.6 1.98 0 3.77 0 5.76.2 3.37.4 6.54 2.18 8.33 5.35 0 .6.59 1.19.4 1.98-.4-.19-.6-.79-1-.79-.79-.99-1.78-1.78-2.97-2.38-2.58-.99-5.36-1.38-8.14-1.19-1.38 0-2.78.2-4.16.4-2.38.4-4.96 1-7.34 1.79-1.59.59-3.17.99-4.76 1.38-2.38.4-4.76 0-6.94-.99-2.57-1.39-4.56-3.77-5.35-6.74-.4-1.19-.79-2.19-1.59-3.17a32.412 32.412 0 0 0-8.53-7.93 8.815 8.815 0 0 0-3.57-1.38c1 1.78 1.98 3.17 2.98 4.76 1.59 2.57 2.97 5.15 4.36 7.73 1.38 2.58 2.57 4.76 3.97 6.94 1.19 1.79 2.38 3.77 3.37 5.76 1 1.98 2.98 3.17 5.16 2.97 2.18 0 4.36-.4 6.35-.99 2.38-.79 4.76-1.59 6.94-2.58 3.38-1.38 7.14-2.18 10.71-2.38 2.58-.19 5.36.6 7.34 2.38l.79.4zm-34.51-39.86c.19 0 .19 0 .19-.2l1-.79c.2-.19.4-.4.2-.59-.6-.79-.6-1.19-1.59-1.59-.19.99-.19 2.18-.4 3.17-.59.79-1.19 1.38-1.78 1.98-.4.59-1.38.79-1.19 1.38 0 1.39.4 2.78.99 3.97.2.4.4.4.79.4 1.59-.19 1.79-.59 1.19-1.98-.79-1.59-.59-3.37.4-4.95 0-.2.2-.4.2-.79zm3.37-.2c.2 1.39.6 2.78 1.39 3.97 0-1.59-.6-2.97-1.39-3.97zm29.75-41.45c0-.99-.99-1.59-1.59-2.18-.99-1.19-1.78-2.38-2.57-3.57-.2-.4-.4-.79-.2-1.19 1 .59 1.39 1.59 2.58 1.78.99 1 1.98 1.98 2.97 2.98 2.78 2.38 5.55 4.95 7.93 7.73 1.98 2.38 3.37 5.16 3.97 8.14.2.79.2 1.59.4 2.38.2.4.2.79 0 .99-.2.2-.2.6-.6.4-.4-.2-.19-.4-.4-.6-.4-1.98-1.19-3.97-2.18-5.95-.59-1.38-1.59-2.57-2.57-3.57-2.19-2.18-4.17-4.36-6.55-6.35-.4-.19-.99-.39-1.19-.99zm-12.89 181.68c1.38-.6 2.78-1.19 3.97-1.79 3.17-1.59 6.35-3.57 9.12-5.95 4.16-3.57 7.93-7.53 11.11-11.89 2.38-3.38 4.76-6.74 6.74-10.52 2.38-4.16 4.36-8.33 6.14-12.69 2.18-5.16 4.16-10.11 5.95-15.47 2.18-6.54 4.16-13.09 5.75-19.83 1.39-5.16 2.38-10.51 3.58-15.86.79-3.77 1.38-7.54 1.98-11.31.19-.79.19-1.78.39-2.57 0-.4 0-.79.4-.79s1.2.59 1 .99c-.2.6-.2 1.19-.2 1.79-.79 5.16-1.78 10.51-2.57 15.67-1.59 8.33-3.38 16.46-5.55 24.59-1 3.57-1.98 6.94-3.17 10.31-1.38 4.36-2.97 8.92-4.76 13.09-.79 2.18-1.78 4.16-2.78 6.35-1.38 2.78-2.78 5.55-4.16 8.13-1.19 1.98-2.58 4.17-3.77 6.15-1.98 2.97-3.97 5.75-6.35 8.33-1.78 1.78-3.57 3.57-5.35 4.95-1.59 1.19-3.17 2.38-4.76 3.57-.6.4-1.39.79-1.98 1-2.98 1.59-6.15 2.78-9.52 3.37h-.4c-.4.4-.6.4-.79.4z" class="fil6"></path> <path d="M236.81 98.39s-3.57 1.79-3.17 7.34c-.19 0-1.78 1.59-1.19 6.94.2 0 2.78 1.98 2.98 1.19.19-.79-1.39-7.54 3.17-13.49l-1.79-1.98zm2.78 2.98s-.19 4.56-2.78 5.95c-.4 2.18 0 4.36 1.19 6.14 0 0 2.38-.59 2.58-.79.2-.19-1.59-2.57-1.19-4.56.4-1.78 1.59-3.17 3.17-4.16-.79-.79-1.59-1.59-2.58-2.38l-.4-.2zm-2.78-2.98 2.78 2.98-2.78-2.98 2.78 2.98-2.78-2.98z" style="fill:#a98a79;fill-rule:nonzero"></path> <path d="M1054.73 269.75v-97.18h38.67c6.35-.2 12.69.99 18.64 3.37 5.16 2.19 9.52 5.76 12.3 10.52 2.98 5.55 4.57 11.7 4.36 18.05.2 4.96-.59 10.12-2.18 14.88-1.39 3.97-3.57 7.33-6.55 10.31-3.17 2.78-6.74 4.76-10.9 5.95-4.76 1.38-9.72 1.98-14.68 1.98l-14.48-.01v32.13h-25.19zm-498.21 16.07v-35.9c3.37.2 6.54-1.59 8.33-4.36 2.38-3.97 3.76-8.52 4.16-13.08 1-7.14 1.39-14.48 1.59-21.62.2-8.52.2-21.42.2-38.28h73.38v77.35h7.34v35.9h-24.2v-16.07h-46.61v16.07h-24.2zm30.94-35.9h30.34V194h-23.4c0 10.11 0 18.05-.19 23.8-.2 5.75-.4 10.9-.79 15.07-.2 3.58-1 6.95-1.98 10.52-.79 2.38-2.19 4.76-3.97 6.54zm69.13-30.74c0-6.94 1.38-13.68 4.36-19.83 2.78-5.95 6.94-11.5 11.9-15.87 5.16-4.56 10.9-8.13 17.25-10.51 13.09-4.96 27.37-4.96 40.26 0 6.35 2.38 12.3 5.95 17.26 10.51 4.95 4.36 9.12 9.92 11.9 15.87 2.97 6.15 4.36 12.9 4.36 19.83 0 7.34-1.19 14.68-3.97 21.42-2.58 6.35-6.35 12.3-11.31 17.25-4.95 4.76-10.71 8.53-17.06 11.11-13.88 5.16-29.15 5.16-42.83 0-6.35-2.57-12.3-6.35-17.26-11.11a50.063 50.063 0 0 1-11.3-17.25c-2.38-6.74-3.57-14.08-3.57-21.42zm26.38.2c0 5.16 1.19 10.31 3.77 14.87 2.38 4.36 5.75 7.93 9.92 10.31 4.16 2.57 8.92 3.76 13.88 3.76 4.76 0 9.72-1.19 13.69-3.76 4.16-2.58 7.54-6.14 9.92-10.31 2.57-4.56 3.76-9.71 3.76-14.87 0-4.57-1.19-8.93-3.76-12.69-2.58-3.97-5.95-7.34-10.12-9.52a28.015 28.015 0 0 0-27.37 0c-4.16 2.18-7.53 5.55-10.11 9.52-2.38 3.97-3.57 8.33-3.57 12.69zm91.12 50.37v-97.18h25.19v40.07h.2l30.74-40.07h31.34l-38.68 46.02 42.25 51.16H832.4l-32.52-42.24h-.2v42.24H774.1zm94.74-75.76v-21.42h67.04v21.42h-20.83v75.76h-25.38v-75.76h-20.83zm68.4 25.19c0-6.94 1.39-13.68 4.36-19.83 2.78-5.95 6.95-11.5 11.9-15.87 5.16-4.56 10.91-8.13 17.26-10.51 13.09-4.96 27.36-4.96 40.26 0 6.35 2.38 12.3 5.95 17.25 10.51 4.96 4.36 9.12 9.92 11.9 15.87 2.98 6.15 4.36 12.9 4.36 19.83 0 7.34-1.19 14.68-3.97 21.42-2.58 6.35-6.35 12.3-11.3 17.25-4.96 4.76-10.71 8.53-17.06 11.11-13.88 5.16-29.16 5.16-42.84 0-6.35-2.57-12.3-6.35-17.25-11.11-4.96-4.95-8.73-10.71-11.31-17.25-2.38-6.74-3.76-14.08-3.57-21.42zm26.18.2c0 5.16 1.19 10.31 3.77 14.87 2.38 4.36 5.75 7.93 9.91 10.31 4.17 2.57 8.93 3.76 13.88 3.76 4.76 0 9.72-1.19 13.69-3.76 4.16-2.58 7.54-6.14 9.92-10.31 2.57-4.56 3.76-9.71 3.76-14.87 0-4.57-1.38-8.93-3.76-12.69-2.58-3.97-5.95-7.34-10.12-9.52a28.015 28.015 0 0 0-27.37 0c-4.16 2.18-7.54 5.55-10.11 9.52-2.18 3.97-3.57 8.33-3.57 12.69zm116.51-2.38h4.36c3.17 0 6.55-.2 9.72-.6 2.38-.4 4.56-1.38 6.14-3.17 1.79-2.38 2.58-5.16 2.38-8.13.2-2.98-.59-5.95-2.38-8.33-1.59-1.79-3.57-2.98-5.95-3.17-3.37-.4-6.54-.79-9.92-.6h-4.36v24z" style="fill:#67b060;fill-rule:nonzero"></path> <path d="M1196.94 193.99v-21.42h67.03v21.42h-21.02v75.76h-25.39v-75.76h-20.62zm307.46 75.76 37.28-97.18h27.57l36.69 97.18h-26.97l-6.35-16.86h-34.91l-6.74 16.86h-26.58zm40.45-36.29h21.02l-10.31-30.94h-.19l-10.52 30.94zm-167.22 36.29 16.47-97.18h24.79l19.83 51.97 21.02-51.97h24.98l14.68 97.18h-25.19l-7.14-55.92h-.19l-20.63 55.92h-16.07l-19.03-55.92h-.2l-8.13 55.92h-25.19zm-111-50.57c0-6.94 1.39-13.68 4.36-19.83 2.78-5.95 6.95-11.5 11.9-15.87 5.16-4.56 10.91-8.13 17.26-10.51 13.09-4.96 27.37-4.96 40.26 0 6.35 2.38 12.3 5.95 17.25 10.51 4.96 4.36 9.12 9.92 11.9 15.87 2.98 6.15 4.36 12.9 4.36 19.83 0 7.34-1.19 14.68-3.97 21.42-4.95 12.89-15.27 23.2-28.16 28.36-13.88 5.16-29.15 5.16-42.83 0-6.35-2.57-12.3-6.35-17.26-11.11a50.063 50.063 0 0 1-11.3-17.25c-2.58-6.74-3.97-14.08-3.77-21.42zm26.18.2c0 5.16 1.19 10.31 3.77 14.87 4.76 8.73 13.88 14.08 23.8 14.08 4.75 0 9.71-1.19 13.68-3.76 4.16-2.58 7.54-6.14 9.92-10.31 2.57-4.56 3.76-9.71 3.76-14.87 0-4.57-1.38-8.93-3.76-12.69-2.58-3.97-5.95-7.34-10.12-9.52a27.995 27.995 0 0 0-27.36 0c-4.17 2.38-7.54 5.55-10.12 9.52-2.18 3.97-3.57 8.33-3.57 12.69z" style="fill:#dc7643;fill-rule:nonzero"></path> <path d="M243.55 104.73c.79 1.19 1.39 2.58 1.39 3.97-.79-1.19-1.19-2.57-1.39-3.97zm-6.34-5.75c-.08 0-.37-.02-.4.02-1.17 1.93-2.2 4-3.17 6.12-.19 1.39 2.38-.79 2.38-1.19 0-.4 1.79-4.95 1.2-4.95zm-3.51 7.38c.67.07 1.31.38 1.33.35.19 1.59 0 3.38-.4 4.96-.2 0-.4 0-.79-.4-.36-1.18-.67-2.91-.14-4.91zm6.09-2.83c-.6 1.19-.79 2.58-.6 3.77.2.79 3.17-1.19 3.17-1.59 0-.4-2.18-2.38-2.57-2.19z" style="fill:#fefefe;fill-rule:nonzero"></path> </g> </svg> 